<svg version="1.1"
     baseProfile="full"
     xmlns="http://www.w3.org/2000/svg"
     xmlns:xlink="http://www.w3.org/1999/xlink"
     xmlns:ev="http://www.w3.org/2001/xml-events"
     width="15"
     height="15"
     viewBox="0 0 15 15"
     shape-rendering="crispEdges"
     opacity="0.5"
     >
  <rect x="2" y="0" width="1" height="1"></rect>
  <rect x="3" y="0" width="1" height="1"></rect>
  <rect x="11" y="0" width="1" height="1"></rect>
  <rect x="12" y="0" width="1" height="1"></rect>
  <rect x="1" y="1" width="1" height="1"></rect>
  <rect x="3" y="1" width="1" height="1"></rect>
  <rect x="4" y="1" width="1" height="1"></rect>
  <rect x="6" y="1" width="1" height="1"></rect>
  <rect x="7" y="1" width="1" height="1"></rect>
  <rect x="8" y="1" width="1" height="1"></rect>
  <rect x="10" y="1" width="1" height="1"></rect>
  <rect x="12" y="1" width="1" height="1"></rect>
  <rect x="13" y="1" width="1" height="1"></rect>
  <rect x="0" y="2" width="1" height="1"></rect>
  <rect x="1" y="2" width="1" height="1"></rect>
  <rect x="2" y="2" width="1" height="1"></rect>
  <rect x="3" y="2" width="1" height="1"></rect>
  <rect x="4" y="2" width="1" height="1"></rect>
  <rect x="5" y="2" width="1" height="1"></rect>
  <rect x="9" y="2" width="1" height="1"></rect>
  <rect x="10" y="2" width="1" height="1"></rect>
  <rect x="11" y="2" width="1" height="1"></rect>
  <rect x="12" y="2" width="1" height="1"></rect>
  <rect x="13" y="2" width="1" height="1"></rect>
  <rect x="14" y="2" width="1" height="1"></rect>
  <rect x="0" y="3" width="1" height="1"></rect>
  <rect x="5" y="3" width="1" height="1"></rect>
  <rect x="7" y="3" width="1" height="1"></rect>
  <rect x="9" y="3" width="1" height="1"></rect>
  <rect x="14" y="3" width="1" height="1"></rect>
  <rect x="1" y="4" width="1" height="1"></rect>
  <rect x="4" y="4" width="1" height="1"></rect>
  <rect x="6" y="4" width="1" height="1"></rect>
  <rect x="7" y="4" width="1" height="1"></rect>
  <rect x="8" y="4" width="1" height="1"></rect>
  <rect x="10" y="4" width="1" height="1"></rect>
  <rect x="13" y="4" width="1" height="1"></rect>
  <rect x="2" y="5" width="1" height="1"></rect>
  <rect x="3" y="5" width="1" height="1"></rect>
  <rect x="5" y="5" width="1" height="1"></rect>
  <rect x="9" y="5" width="1" height="1"></rect>
  <rect x="11" y="5" width="1" height="1"></rect>
  <rect x="12" y="5" width="1" height="1"></rect>
  <rect x="2" y="6" width="1" height="1"></rect>
  <rect x="4" y="6" width="1" height="1"></rect>
  <rect x="10" y="6" width="1" height="1"></rect>
  <rect x="12" y="6" width="1" height="1"></rect>
  <rect x="1" y="7" width="1" height="1"></rect>
  <rect x="3" y="7" width="1" height="1"></rect>
  <rect x="10" y="7" width="1" height="1"></rect>
  <rect x="12" y="7" width="1" height="1"></rect>
  <rect x="2" y="8" width="1" height="1"></rect>
  <rect x="4" y="8" width="1" height="1"></rect>
  <rect x="10" y="8" width="1" height="1"></rect>
  <rect x="12" y="8" width="1" height="1"></rect>
  <rect x="2" y="9" width="1" height="1"></rect>
  <rect x="3" y="9" width="1" height="1"></rect>
  <rect x="5" y="9" width="1" height="1"></rect>
  <rect x="9" y="9" width="1" height="1"></rect>
  <rect x="11" y="9" width="1" height="1"></rect>
  <rect x="12" y="9" width="1" height="1"></rect>
  <rect x="1" y="10" width="1" height="1"></rect>
  <rect x="3" y="10" width="1" height="1"></rect>
  <rect x="4" y="10" width="1" height="1"></rect>
  <rect x="6" y="10" width="1" height="1"></rect>
  <rect x="7" y="10" width="1" height="1"></rect>
  <rect x="8" y="10" width="1" height="1"></rect>
  <rect x="10" y="10" width="1" height="1"></rect>
  <rect x="12" y="10" width="1" height="1"></rect>
  <rect x="13" y="10" width="1" height="1"></rect>
  <rect x="0" y="11" width="1" height="1"></rect>
  <rect x="1" y="11" width="1" height="1"></rect>
  <rect x="2" y="11" width="1" height="1"></rect>
  <rect x="3" y="11" width="1" height="1"></rect>
  <rect x="4" y="11" width="1" height="1"></rect>
  <rect x="5" y="11" width="1" height="1"></rect>
  <rect x="9" y="11" width="1" height="1"></rect>
  <rect x="10" y="11" width="1" height="1"></rect>
  <rect x="11" y="11" width="1" height="1"></rect>
  <rect x="12" y="11" width="1" height="1"></rect>
  <rect x="13" y="11" width="1" height="1"></rect>
  <rect x="14" y="11" width="1" height="1"></rect>
  <rect x="0" y="12" width="1" height="1"></rect>
  <rect x="5" y="12" width="1" height="1"></rect>
  <rect x="7" y="12" width="1" height="1"></rect>
  <rect x="9" y="12" width="1" height="1"></rect>
  <rect x="14" y="12" width="1" height="1"></rect>
  <rect x="1" y="13" width="1" height="1"></rect>
  <rect x="4" y="13" width="1" height="1"></rect>
  <rect x="6" y="13" width="1" height="1"></rect>
  <rect x="7" y="13" width="1" height="1"></rect>
  <rect x="8" y="13" width="1" height="1"></rect>
  <rect x="10" y="13" width="1" height="1"></rect>
  <rect x="13" y="13" width="1" height="1"></rect>
  <rect x="2" y="14" width="1" height="1"></rect>
  <rect x="3" y="14" width="1" height="1"></rect>
  <rect x="11" y="14" width="1" height="1"></rect>
  <rect x="12" y="14" width="1" height="1"></rect>
</svg>