<svg version="1.1"
     baseProfile="full"
     xmlns="http://www.w3.org/2000/svg"
     xmlns:xlink="http://www.w3.org/1999/xlink"
     xmlns:ev="http://www.w3.org/2001/xml-events"
     width="6"
     height="6"
     viewBox="0 0 6 6"
     shape-rendering="crispEdges"
     opacity="0.5"
     >
  <rect x="2" y="0" width="1" height="1"></rect>
  <rect x="3" y="0" width="1" height="1"></rect>
  <rect x="1" y="1" width="1" height="1"></rect>
  <rect x="3" y="1" width="1" height="1"></rect>
  <rect x="4" y="1" width="1" height="1"></rect>
  <rect x="0" y="2" width="1" height="1"></rect>
  <rect x="1" y="2" width="1" height="1"></rect>
  <rect x="2" y="2" width="1" height="1"></rect>
  <rect x="3" y="2" width="1" height="1"></rect>
  <rect x="4" y="2" width="1" height="1"></rect>
  <rect x="5" y="2" width="1" height="1"></rect>
  <rect x="0" y="3" width="1" height="1"></rect>
  <rect x="5" y="3" width="1" height="1"></rect>
  <rect x="1" y="4" width="1" height="1"></rect>
  <rect x="4" y="4" width="1" height="1"></rect>
  <rect x="2" y="5" width="1" height="1"></rect>
  <rect x="3" y="5" width="1" height="1"></rect>
</svg>