<?xml version="1.0" encoding="UTF-8" standalone="no"?>
<!--Generator: Gravit.io-->
<svg xmlns="http://www.w3.org/2000/svg" xmlns:xlink="http://www.w3.org/1999/xlink" style="isolation:isolate" viewBox="0 0 83.954 84.982" width="83.954pt" height="84.982pt">
    <g>
        <path d=" M 8.263 7.689 C 9.812 6.14 9.812 3.615 8.263 2.066 C 7.689 1.492 6.943 1.205 6.14 1.262 C 4.82 1.32 3.845 1.894 3.443 2.869 C 3.099 3.73 3.328 4.705 3.959 5.394 C 4.246 5.681 4.763 5.853 5.222 5.853 C 5.968 5.796 6.484 5.509 6.714 4.935 C 6.886 4.59 6.828 4.131 6.599 3.845 Q 6.484 3.845 7.287 2.754 C 7.976 3.443 8.206 4.533 7.861 5.451 C 7.46 6.484 6.484 7.115 5.222 7.173 C 4.361 7.23 3.558 6.886 2.984 6.312 C 1.951 5.279 1.664 3.787 2.18 2.41 C 2.754 0.975 4.189 0.057 6.025 0 C 6.082 0 6.14 0 6.14 0 C 7.287 0 8.32 0.402 9.066 1.205 C 11.132 3.271 11.132 6.599 9.066 8.665 L 8.206 9.525 C 4.418 13.312 2.066 18.19 1.377 23.412 C 3.328 19.969 7.058 17.616 11.304 17.616 C 16.411 17.616 20.542 21.747 20.542 26.854 C 20.542 30.986 17.157 34.371 13.026 34.371 C 9.64 34.371 6.886 31.617 6.886 28.232 C 6.886 25.477 9.124 23.182 11.935 23.182 Q 11.911 24.26 11.959 24.248 C 9.688 24.248 8.148 25.898 8.148 28.232 C 8.148 30.928 10.329 33.109 13.026 33.109 C 16.468 33.109 19.28 30.297 19.28 26.854 C 19.28 22.493 15.722 18.878 11.304 18.878 C 5.738 18.878 1.205 23.412 1.205 29.035 L 1.205 54.856 C 8.951 55.201 15.206 61.455 15.55 69.259 L 15.55 69.259 L 15.55 69.259 C 23.297 69.603 29.551 75.858 29.896 83.662 L 83.98 83.662 L 83.98 84.982 L 28.691 84.982 L 28.691 84.35 C 28.691 77.006 22.895 70.981 15.608 70.636 L 15.608 84.867 L 0 84.867 L 0 69.259 L 14.288 69.259 C 13.944 61.972 7.976 56.119 0.631 56.119 L 0 56.119 L 0 28.92 C 0 28.863 0 28.805 0 28.748 L 0 28.748 L 0 26.395 C 0 19.624 2.64 13.312 7.402 8.55 L 8.263 7.689 Z  M 1.262 83.547 L 14.345 83.547 L 14.345 70.464 L 1.262 70.464 L 1.262 83.547 Z " />
        <path d=" M 7.809 72.682 C 5.402 72.682 3.443 74.642 3.443 77.048 C 3.443 79.455 5.402 81.414 7.809 81.414 C 10.215 81.414 12.175 79.455 12.175 77.048 C 12.175 74.642 10.215 72.682 7.809 72.682 Z  M 7.809 76.175 C 8.297 76.175 8.682 76.561 8.682 77.048 C 8.682 77.536 8.297 77.922 7.809 77.922 C 7.321 77.922 6.936 77.536 6.936 77.048 C 6.936 76.561 7.321 76.175 7.809 76.175 Z  M 4.316 77.048 L 6.063 77.048 C 6.063 78.009 6.848 78.795 7.809 78.795 C 8.769 78.795 9.555 78.009 9.555 77.048 L 11.302 77.048 C 11.302 78.983 9.743 80.541 7.809 80.541 C 5.875 80.541 4.316 78.983 4.316 77.048 Z " />
    </g>
</svg>
