<?xml version="1.0" encoding="UTF-8" standalone="no"?><!-- Generator: Gravit.io --><svg xmlns="http://www.w3.org/2000/svg" xmlns:xlink="http://www.w3.org/1999/xlink" style="isolation:isolate" viewBox="0 0 76.362 78.652" width="76.362pt" height="78.652pt"><defs><clipPath id="_clipPath_5AGOIWBbWBjipSCfMddCZ479qZL5f6Tb"><rect width="76.362" height="78.652"/></clipPath></defs><g clip-path="url(#_clipPath_5AGOIWBbWBjipSCfMddCZ479qZL5f6Tb)"><g><path d=" M 37.247 77.8 C 36.647 77.1 35.947 75.3 35.647 73.9 C 34.547 69.7 31.147 66.1 22.547 60.6 C 3.047 48 -3.753 33.1 1.947 14.9 C 3.747 9 9.147 0 10.847 0 C 11.247 0 11.647 2.5 11.747 5.7 C 12.147 15.5 17.247 24 25.047 28 C 31.547 31.4 37.147 32.3 43.347 31 C 55.447 28.5 63.447 19.1 64.647 6.1 C 65.247 0.1 65.1 -0.7 67 1 C 73.5 6.9 77.747 22 75.947 32.3 C 73.947 43.3 67.747 51.3 54.047 60.5 C 46.98 65.756 43.753 69.776 41 76 C 40.013 78.334 38.747 79.6 37.247 77.8 Z " fill="rgb(0,0,0)"/></g></g></svg>