<?xml version="1.0" encoding="UTF-8" standalone="no"?><!-- Generator: Gravit.io --><svg xmlns="http://www.w3.org/2000/svg" xmlns:xlink="http://www.w3.org/1999/xlink" style="isolation:isolate" viewBox="0 0 73.915 66.924" width="73.915pt" height="66.924pt"><defs><clipPath id="_clipPath_BP6ntHhdL0tCmZe05I0Co0v0Mu4S6Rvd"><rect width="73.915" height="66.924"/></clipPath></defs><g clip-path="url(#_clipPath_BP6ntHhdL0tCmZe05I0Co0v0Mu4S6Rvd)"><path d=" M 15.975 66.3 C 11.375 65 5.475 60.9 2.375 57 C -1.825 51.4 -1.525 51.1 12.175 51.8 C 18.875 52.1 25.175 52.6 26.175 53 C 28.775 54.1 28.475 60.7 25.675 63.9 C 22.875 66.9 20.375 67.6 15.975 66.3 Z " fill="rgb(0,0,0)"/><circle vector-effect="non-scaling-stroke" cx="36.950285472438466" cy="44.44701492420744" r="7.975135911997269" fill="rgb(0,0,0)"/><path d=" M 10.375 37.1 C 3.075 33.9 -0.025 26.2 1.275 14.7 C 1.975 8.2 5.675 0 7.775 0 C 8.675 0 10.075 2.7 11.375 7.1 C 12.575 11 15.175 16.9 17.175 20.2 C 21.075 26.6 23.875 33.5 23.875 36.6 C 23.875 38.2 23.075 38.5 18.675 38.5 C 15.775 38.4 11.975 37.8 10.375 37.1 Z " fill="rgb(0,0,0)"/><path d=" M 57.94 66.3 C 62.54 65 68.44 60.9 71.54 57 C 75.74 51.4 75.44 51.1 61.74 51.8 C 55.04 52.1 48.74 52.6 47.74 53 C 45.14 54.1 45.44 60.7 48.24 63.9 C 51.04 66.9 53.54 67.6 57.94 66.3 Z " fill="rgb(0,0,0)"/><path d=" M 63.54 37.1 C 70.84 33.9 73.94 26.2 72.64 14.7 C 71.94 8.2 68.24 0 66.14 0 C 65.24 0 63.84 2.7 62.54 7.1 C 61.34 11 58.74 16.9 56.74 20.2 C 52.84 26.6 50.04 33.5 50.04 36.6 C 50.04 38.2 50.84 38.5 55.24 38.5 C 58.14 38.4 61.94 37.8 63.54 37.1 Z " fill="rgb(0,0,0)"/></g></svg>