<?xml version="1.0" encoding="UTF-8" standalone="no"?><!-- Generator: Gravit.io --><svg xmlns="http://www.w3.org/2000/svg" xmlns:xlink="http://www.w3.org/1999/xlink" style="isolation:isolate" viewBox="0 0 74.8 78.559" width="74.8pt" height="78.559pt"><defs><clipPath id="_clipPath_An26mHAW8jJb4wZPR7TdWfd2cpvXzYjS"><rect width="74.8" height="78.559"/></clipPath></defs><g clip-path="url(#_clipPath_An26mHAW8jJb4wZPR7TdWfd2cpvXzYjS)"><path d=" M 21.5 78.405 C 21.6 77.705 23.8 71.705 26.4 65.105 L 31.2 53.105 L 15.6 52.605 L 0 52.105 L 12 39.005 C 18.6 31.905 29.4 20.105 35.9 12.805 C 42.5 5.505 48 -0.195 48.3 0.005 C 48.5 0.305 48.2 2.705 47.7 5.305 C 47.1 7.905 46.1 13.505 45.5 17.605 C 44.9 21.705 44.2 26.105 43.9 27.405 L 43.5 29.605 L 59.2 29.605 L 74.8 29.605 L 72.4 32.205 C 71.1 33.705 62.4 41.905 53 50.605 C 43.7 59.205 32.7 69.305 28.8 73.105 C 24.8 76.805 21.5 79.205 21.5 78.405 Z " fill="rgb(0,0,0)"/></g></svg>