<?xml version="1.0" encoding="UTF-8" standalone="no"?><!-- Generator: Gravit.io --><svg xmlns="http://www.w3.org/2000/svg" xmlns:xlink="http://www.w3.org/1999/xlink" style="isolation:isolate" viewBox="0 0 84.682 75" width="84.682pt" height="75pt"><defs><clipPath id="_clipPath_tgUQWFfzgy1DJQAhToVJl7jnDK0q7e3Y"><rect width="84.682" height="75"/></clipPath></defs><g clip-path="url(#_clipPath_tgUQWFfzgy1DJQAhToVJl7jnDK0q7e3Y)"><g><path d=" M 46.682 65.9 L 46.682 56.8 L 54.182 49.7 C 61.382 42.8 61.682 42.3 61.682 38 C 61.682 35.5 60.782 30.2 59.682 26.2 C 57.182 17.3 57.182 14.9 59.582 10.1 C 63.182 3.1 70.982 -3.5 68.782 2.3 C 67.482 5.7 69.882 10.5 74.382 13.3 C 82.282 18.4 84.682 22.7 84.682 31.8 C 84.682 42.4 80.582 46.7 67.382 50.1 C 62.082 51.4 59.482 52.7 57.482 54.9 C 54.882 57.8 50.682 69.1 50.682 73.1 C 50.682 74.3 49.982 75 48.682 75 C 46.782 75 46.682 74.3 46.682 65.9 Z " fill="rgb(0,0,0)"/><path d=" M 46.882 22.8 C 44.182 17.2 44.682 11.1 48.082 6.5 C 49.482 4.7 49.582 5.5 49.682 14.8 C 49.682 25 48.982 27 46.882 22.8 Z " fill="rgb(0,0,0)"/><path d=" M 38 65.822 L 38 56.722 L 30.5 49.622 C 23.3 42.722 23 42.222 23 37.922 C 23 35.422 23.9 30.122 25 26.122 C 27.5 17.222 27.5 14.822 25.1 10.022 C 21.5 3.022 13.7 -3.578 15.9 2.222 C 17.2 5.622 14.8 10.422 10.3 13.222 C 2.4 18.322 0 22.622 0 31.722 C 0 42.322 4.1 46.622 17.3 50.022 C 22.6 51.322 25.2 52.622 27.2 54.822 C 29.8 57.722 34 69.022 34 73.022 C 34 74.222 34.7 74.922 36 74.922 C 37.9 74.922 38 74.222 38 65.822 Z " fill="rgb(0,0,0)"/><path d=" M 37.8 22.722 C 40.5 17.122 40 11.022 36.6 6.422 C 35.2 4.622 35.1 5.422 35 14.722 C 35 24.922 35.7 26.922 37.8 22.722 Z " fill="rgb(0,0,0)"/></g></g></svg>