<?xml version="1.0" encoding="UTF-8" standalone="no"?><!-- Generator: Gravit.io --><svg xmlns="http://www.w3.org/2000/svg" xmlns:xlink="http://www.w3.org/1999/xlink" style="isolation:isolate" viewBox="0 0 55 60" width="55pt" height="60pt"><defs><clipPath id="_clipPath_2WxmVO72xuRrVhKuHa6dux8K6lIFUZnl"><rect width="55" height="60"/></clipPath></defs><g clip-path="url(#_clipPath_2WxmVO72xuRrVhKuHa6dux8K6lIFUZnl)"><g><path d=" M 0 43 L 0 25.9 L 10.3 26.2 L 20.5 26.5 L 20.8 35.8 L 21.1 45 L 28.5 45 L 36 45 L 36 52.5 L 36 60 L 18 60 L 0 60 L 0 43 Z " fill="rgb(0,0,0)"/><path d=" M 39.8 50.8 L 39.5 41.5 L 33.3 41.2 L 27 40.9 L 27 33.5 L 27 26 L 41 26 L 55 26 L 55 43 L 55 60 L 47.5 60 L 40.1 60 L 39.8 50.8 Z " fill="rgb(0,0,0)"/><path d=" M 0 11.5 L 0 0 L 5 0 L 10 0 L 10 11.5 L 10 23 L 5 23 L 0 23 L 0 11.5 Z " fill="rgb(0,0,0)"/><path d=" M 15 11.5 L 15 0 L 20 0 L 25 0 L 25 11.5 L 25 23 L 20 23 L 15 23 L 15 11.5 Z " fill="rgb(0,0,0)"/><path d=" M 30 11.5 L 30 0 L 35 0 L 40 0 L 40 11.5 L 40 23 L 35 23 L 30 23 L 30 11.5 Z " fill="rgb(0,0,0)"/><path d=" M 45 11.5 L 45 0 L 50 0 L 55 0 L 55 11.5 L 55 23 L 50 23 L 45 23 L 45 11.5 Z " fill="rgb(0,0,0)"/></g></g></svg>