<?xml version="1.0" encoding="UTF-8" standalone="no"?><!-- Generator: Gravit.io --><svg xmlns="http://www.w3.org/2000/svg" xmlns:xlink="http://www.w3.org/1999/xlink" style="isolation:isolate" viewBox="0 0 78.4 79.177" width="78.4pt" height="79.177pt"><defs><clipPath id="_clipPath_NutVHEGHik5MAZVUe6NcjRAbta93IMb0"><rect width="78.4" height="79.177"/></clipPath></defs><g clip-path="url(#_clipPath_NutVHEGHik5MAZVUe6NcjRAbta93IMb0)"><g><path d=" M 22.6 77.6 C 10.9 74.2 1.4 62.3 0.4 49.8 L 0 44.3 C 3.49 46.813 6.233 47.023 8.2 44.9 L 8.2 35.4 C 8.2 26.4 9.3 21.1 12 18.1 C 14.2 15.5 15.8 15.9 16.8 19.5 C 17.3 21.2 18.2 22.8 18.9 23 C 20.4 23.5 32.2 9.4 32.2 7.1 C 32.2 6 31 4 29.6 2.6 L 27 0 L 35.4 0.5 C 41.7 0.9 44.9 1.6 48.8 3.6 C 58.8 8.7 65.9 19.9 69.1 35.7 C 70 40.4 71.1 44.6 71.5 44.9 C 71.9 45.3 73.6 44.3 75.3 42.7 L 78.4 39.8 L 78 46.8 C 77.8 50.8 76.8 55.4 75.8 57.6 C 73.4 62.4 66.108 69.502 62.2 72.7 C 59.62 74.532 59.064 74.764 59.6 71.7 C 61.61 63.732 61.1 52.9 55.6 48.5 C 52.6 46.1 52.2 45.3 52.2 41 C 52.2 35.3 50.9 35.2 47.5 40.3 L 45.2 43.6 L 45.2 40.7 C 45.2 39.1 44.2 35.8 43.1 33.3 C 41.2 29.2 41 28.9 39.7 30.6 C 39 31.6 38.1 34.7 37.7 37.5 L 37 42.6 L 34 39.4 C 32.4 37.7 30.7 36.3 30.1 36.3 C 29.6 36.3 29.2 38.9 29.2 42.1 C 29.2 46.6 28.7 48.6 26.6 51.6 C 21.8 58.7 22.1 66 27.7 74.3 C 31.5 79.9 31.2 80.2 22.6 77.6 Z " fill="rgb(0,0,0)"/><circle vector-effect="non-scaling-stroke" cx="42.374561414585" cy="65.57897204497236" r="13.174561414585" fill="rgb(0,0,0)"/></g></g></svg>