<?xml version="1.0" encoding="UTF-8" standalone="no"?><!-- Generator: Gravit.io --><svg xmlns="http://www.w3.org/2000/svg" xmlns:xlink="http://www.w3.org/1999/xlink" style="isolation:isolate" viewBox="0 0 74 73" width="74pt" height="73pt"><defs><clipPath id="_clipPath_RHvZOtmF13r0SWbNPsNE26K7yel5lPIG"><rect width="74" height="73"/></clipPath></defs><g clip-path="url(#_clipPath_RHvZOtmF13r0SWbNPsNE26K7yel5lPIG)"><g><path d=" M 32.6 70.5 C 32 68.2 31.5 68 26.2 68 C 18.387 68 14 66.4 14 64.4 C 14 63.6 14.318 62.203 17.3 61 C 21.595 59.855 23.245 59.972 18.5 58.5 C 8.8 56.2 7.3 55.5 3.8 52 C 1.7 49.9 0 47.4 0 46.5 C 0 44.9 0.7 44.8 6 45.3 C 9.3 45.6 13 46 13 45.8 C 13 45.5 11.1 43.7 10.1 42.2 C 4.4 34.4 1.1 12.5 4.3 4.7 C 8.6 -5.4 16.8 1.8 25.1 23 C 29.7 34.5 36 58.2 36 63.6 C 36 65.5 36.5 67 37 67 C 37.6 67 38 66 38 64.8 C 38 60.2 42.1 43.4 45.9 32 C 52.4 12.6 59.8 0 64.7 0 C 68.8 0 70.5 3.6 70.8 12.9 C 71.2 23.3 69.1 33.3 65 40.6 L 62.1 45.8 L 68 45.3 C 73.5 44.8 74 44.9 74 46.7 C 74 49.7 66.8 55.7 61.8 57 C 59.4 57.6 56.4 58.5 55 59 C 52.5 59.8 52.5 59.8 55.7 60.5 C 57.5 60.9 59.6 62 60.5 63 C 63 65.7 60.403 67.367 50.8 67.8 C 43.581 67.836 42.635 67.637 42 70.5 C 41.781 72.609 39.8 73 37 73 C 33.9 73 33.1 72.6 32.6 70.5 Z " fill="rgb(0,0,0)"/></g></g></svg>