<?xml version="1.0" encoding="UTF-8" standalone="no"?><!-- Generator: Gravit.io --><svg xmlns="http://www.w3.org/2000/svg" xmlns:xlink="http://www.w3.org/1999/xlink" style="isolation:isolate" viewBox="0 0 67.458 75.526" width="67.458pt" height="75.526pt"><defs><clipPath id="_clipPath_ur0nhBLPeNoAoirjzl50PnvjCU8ohQEV"><rect width="67.458" height="75.526"/></clipPath></defs><g clip-path="url(#_clipPath_ur0nhBLPeNoAoirjzl50PnvjCU8ohQEV)"><path d=" M 20.958 75.1 C 20.958 74.8 23.458 73.9 26.458 73 C 29.458 72.2 31.958 70.9 31.958 70.2 C 31.958 69.5 27.658 66.8 22.458 64.2 C 11.658 58.8 10.058 56.6 13.858 51.5 C 14.958 49.9 15.958 48.1 15.958 47.6 C 15.958 47 13.558 44.8 10.758 42.6 C -2.642 32.4 -3.542 21.1 8.158 9.8 C 10.558 7.5 15.158 4.4 18.458 2.8 C 23.558 0.4 25.758 0 33.458 0 C 47.358 0 58.458 5.2 64.658 14.7 C 67.158 18.3 67.458 19.8 67.458 26.4 C 67.358 32.3 66.858 35 65.158 38.2 C 61.958 44.4 56.658 49 49.958 51.4 C 42.858 54 41.958 55.1 45.058 57.3 C 49.458 60.4 51.958 63.4 51.958 65.8 C 51.958 68.8 47.358 73.3 42.858 74.5 C 39.558 75.5 20.958 75.9 20.958 75.1 Z " fill="rgb(0,0,0)"/></g></svg>