<?xml version="1.0" encoding="UTF-8" standalone="no"?><!-- Generator: Gravit.io --><svg xmlns="http://www.w3.org/2000/svg" xmlns:xlink="http://www.w3.org/1999/xlink" style="isolation:isolate" viewBox="0 0 68.263 89.2" width="68.263pt" height="89.2pt"><defs><clipPath id="_clipPath_ZIERZjYAdz28TY8DzacGOo5OAxH1aYIX"><rect width="68.263" height="89.2"/></clipPath></defs><g clip-path="url(#_clipPath_ZIERZjYAdz28TY8DzacGOo5OAxH1aYIX)"><path d=" M 28.363 84.8 C 27.763 80.9 27.263 80.2 24.763 79.7 C 20.863 78.8 10.863 72.2 7.563 68.2 C -2.437 56.3 -2.537 43.7 7.363 28.7 Q 12.463 21.1 34.863 0 L 43.963 8.8 C 53.863 18.5 61.063 27.7 65.463 36.2 C 67.763 40.7 68.263 43 68.263 48.7 C 68.263 61.5 61.263 71.2 47.363 77.9 C 39.963 81.4 39.863 81.5 39.863 85.3 L 39.863 89.2 L 34.463 89.2 L 28.963 89.2 L 28.363 84.8 Z  M 36.763 68.2 C 38.863 67.2 47.263 56.3 46.563 55.6 C 46.363 55.3 45.063 55.5 43.763 56 C 42.363 56.6 40.363 56.6 38.963 56.1 C 35.263 54.7 36.663 49 42.263 43.3 C 46.863 38.5 49.563 34.2 48.063 34.2 C 47.563 34.2 45.163 34.9 42.863 35.7 C 40.563 36.5 38.263 36.9 37.763 36.6 C 37.263 36.3 36.863 33.9 36.863 31.1 C 36.863 26.6 36.663 26.2 34.463 26.2 C 32.363 26.2 32.063 26.7 31.663 31.2 C 31.363 34 30.863 36.5 30.463 36.9 C 30.163 37.3 27.563 36.6 24.863 35.5 C 18.063 32.6 18.263 34.5 25.363 42.2 C 30.363 47.6 30.863 48.6 30.863 52.7 C 30.863 56.6 30.563 57.2 28.763 57.2 C 27.663 57.2 25.863 56.7 24.663 56.1 C 21.263 54.3 21.563 55.9 25.763 61.6 C 31.163 68.8 33.263 70.1 36.763 68.2 Z " fill="rgb(0,0,0)"/></g></svg>