<?xml version="1.0" encoding="UTF-8" standalone="no"?><!-- Generator: Gravit.io --><svg xmlns="http://www.w3.org/2000/svg" xmlns:xlink="http://www.w3.org/1999/xlink" style="isolation:isolate" viewBox="0 0 79.012 77.9" width="79.012pt" height="77.9pt"><defs><clipPath id="_clipPath_BB5Lk0PQbpo3oDa89Xg60p8UTz4vq1W3"><rect width="79.012" height="77.9"/></clipPath></defs><g clip-path="url(#_clipPath_BB5Lk0PQbpo3oDa89Xg60p8UTz4vq1W3)"><g><path d=" M 7.8 64.4 C 3.5 57 0 50.5 0 49.9 C 0 48.5 13.6 31.8 15.6 30.6 C 17.617 31.227 29.081 38.604 39.5 45 C 40.2 45.5 61.7 30.9 62.8 30.9 C 65.543 32.396 79.469 48.382 79 49.8 C 79 51.2 63.8 77.9 63 77.9 C 62.7 77.9 57.3 71.6 51 63.9 C 44.8 56.2 39.6 49.9 39.5 49.9 C 39.4 49.9 34.2 56.2 28 63.9 C 21.7 71.6 16.3 77.9 16 77.9 C 15.7 77.9 12 71.8 7.8 64.4 Z " fill="rgb(0,0,0)"/><path d=" M 30.5 29.3 C 26.1 26.3 22.4 23.4 22.2 22.9 C 21.8 21.9 38.9 -0.1 39.9 0 C 40.8 0.1 57.1 21.2 57.2 22.4 C 57.3 23.5 41.3 34.9 39.6 34.9 C 39 34.9 34.9 32.4 30.5 29.3 Z " fill="rgb(0,0,0)"/></g></g></svg>