<?xml version="1.0" encoding="UTF-8" standalone="no"?><!-- Generator: Gravit.io --><svg xmlns="http://www.w3.org/2000/svg" xmlns:xlink="http://www.w3.org/1999/xlink" style="isolation:isolate" viewBox="0 0 79.662 87" width="79.662pt" height="87pt"><defs><clipPath id="_clipPath_a9h4qrCttxquFQcaseu1oirjrQs2MeI9"><rect width="79.662" height="87"/></clipPath></defs><g clip-path="url(#_clipPath_a9h4qrCttxquFQcaseu1oirjrQs2MeI9)"><path d=" M 35.84 83.3 C 35.84 79.5 35.74 79.4 23.94 72.3 C 17.44 68.3 11.54 65 10.84 65 C 10.24 65 8.24 66 6.64 67.2 L 3.54 69.3 L 1.74 66.9 C -0.66 63.7 -0.66 63.5 2.84 61 L 5.84 58.9 L 5.84 43.1 L 5.84 27.4 L 2.84 25.7 C -0.66 23.6 -0.76 23 1.64 20 L 3.44 17.7 L 7.44 20 L 11.34 22.2 L 23.54 14.8 C 35.64 7.6 35.74 7.5 35.84 3.8 C 35.84 0 35.94 0 39.84 0 C 43.84 0 43.84 0 43.84 3.8 C 43.84 7.5 43.94 7.5 56.14 14.8 C 62.94 18.7 68.84 22 69.24 22 C 69.64 22 71.34 21 72.94 19.8 L 76.04 17.5 L 77.94 19.9 C 80.44 23 80.34 23.6 76.84 25.7 L 73.84 27.4 L 73.84 43.1 L 73.84 58.9 L 76.84 61 C 80.34 63.5 80.34 63.7 77.94 66.9 L 76.14 69.3 L 73.04 67.2 C 71.44 66 69.54 65 68.94 65 C 68.24 65 62.34 68.3 55.84 72.3 C 43.94 79.4 43.84 79.5 43.84 83.3 C 43.84 87 43.84 87 39.84 87 C 35.84 87 35.84 87 35.84 83.3 Z  M 38.84 68.5 C 38.84 65.2 38.34 64.7 30.34 59.4 C 22.34 54 21.74 53.8 18.84 55 C 17.24 55.7 15.84 56.6 15.84 57.1 C 15.84 58.2 35.94 71.9 37.64 71.9 C 38.34 72 38.84 70.7 38.84 68.5 Z  M 54.04 64.6 L 65.14 57.1 L 61.54 55.4 L 57.94 53.7 L 49.34 59.3 C 41.34 64.7 40.84 65.2 40.84 68.5 C 40.84 70.4 41.34 72 41.84 72 C 42.44 72 47.94 68.7 54.04 64.6 Z  M 38.84 54 C 38.84 50.2 38.74 47 38.54 47 C 36.84 47 26.34 52.1 26.34 52.9 C 26.34 54.1 35.74 60.9 37.64 60.9 C 38.44 61 38.84 59 38.84 54 Z  M 48.34 57.3 C 51.44 55.3 53.74 53.3 53.54 52.7 C 53.34 52 42.54 47 41.14 47 C 40.94 47 40.84 50.2 40.84 54 C 40.84 58.1 41.24 61 41.84 61 C 42.44 61 45.34 59.4 48.34 57.3 Z  M 18.14 52.6 C 19.54 51.5 19.84 49.7 19.84 43.2 C 19.84 36.2 19.54 34.9 17.94 34 C 16.84 33.5 15.74 33 15.44 33 C 15.14 33 14.84 37.7 14.84 43.5 C 14.84 49.3 15.14 54 15.64 54 C 16.04 54 17.14 53.3 18.14 52.6 Z  M 64.84 43.5 C 64.84 37.7 64.54 33 64.24 33 C 63.94 33 62.84 33.5 61.74 34 C 60.14 34.9 59.84 36.2 59.84 43.2 C 59.84 49.7 60.14 51.5 61.64 52.6 C 62.54 53.3 63.64 54 64.14 54 C 64.54 54 64.84 49.3 64.84 43.5 Z  M 29.04 46.4 C 31.84 45 33.74 43.5 33.24 43.1 C 31.04 41 23.14 37.1 22.54 37.7 C 21.44 38.8 21.74 49 22.84 49 C 23.44 49 26.24 47.8 29.04 46.4 Z  M 57.84 43.6 C 57.84 40.6 57.44 37.9 57.04 37.6 C 56.24 37.2 45.44 42.9 46.04 43.5 C 47.14 44.6 55.54 49 56.64 49 C 57.44 49 57.84 47.3 57.84 43.6 Z  M 52.64 35.3 C 53.24 35 53.84 34.4 53.84 33.9 C 53.84 33.1 42.54 25 41.44 25 C 41.04 25 40.84 28.4 40.84 32.5 L 40.84 40 L 46.14 37.9 C 48.94 36.7 51.94 35.6 52.64 35.3 Z  M 38.84 32 C 38.84 28.2 38.64 25 38.24 25 C 37.24 25 25.84 33.1 25.84 33.9 C 25.84 34.8 34.64 38.8 37.14 38.9 C 38.64 39 38.84 38 38.84 32 Z  M 30.34 27.3 C 38.54 21.9 38.84 21.6 38.84 17.8 C 38.84 13.2 39.64 12.9 24.94 22.9 L 14.54 30 L 17.94 31.4 C 19.84 32.3 21.44 32.9 21.64 33 C 21.74 33 25.64 30.5 30.34 27.3 Z  M 61.54 31.5 C 63.54 30.7 64.94 29.8 64.74 29.6 C 62.64 27.5 41.84 14.3 41.44 14.8 C 41.14 15.1 40.84 16.8 40.84 18.5 C 40.84 21.4 41.64 22.3 49.14 27.3 C 53.64 30.4 57.44 32.9 57.64 32.9 C 57.74 33 59.54 32.3 61.54 31.5 Z " fill="rgb(0,0,0)"/></g></svg>