<?xml version="1.0" encoding="UTF-8" standalone="no"?><!-- Generator: Gravit.io --><svg xmlns="http://www.w3.org/2000/svg" xmlns:xlink="http://www.w3.org/1999/xlink" style="isolation:isolate" viewBox="0 0 67 67" width="67pt" height="67pt"><defs><clipPath id="_clipPath_FaOqGFJQT2ODjiJkBw1eZestGaUiMzPg"><rect width="67" height="67"/></clipPath></defs><g clip-path="url(#_clipPath_FaOqGFJQT2ODjiJkBw1eZestGaUiMzPg)"><path d=" M 26.95 46.41 L 26.95 55.448 C 17.499 52.628 10.6 43.863 10.6 33.5 L 10.6 33.5 C 10.6 20.861 20.861 10.6 33.5 10.6 C 46.139 10.6 56.4 20.861 56.4 33.5 C 56.4 43.863 49.501 52.628 40.05 55.448 L 40.05 55.448 L 40.05 46.41 C 44.751 44.017 47.975 39.132 47.975 33.5 C 47.975 25.511 41.489 19.025 33.5 19.025 C 25.511 19.025 19.025 25.511 19.025 33.5 C 19.025 39.132 22.249 44.017 26.95 46.41 Z  M 0 33.5 C 0 15.011 15.011 0 33.5 0 C 51.989 0 67 15.011 67 33.5 C 67 51.989 51.989 67 33.5 67 C 15.011 67 0 51.989 0 33.5 L 0 33.5 L 0 33.5 Z " fill-rule="evenodd" fill="rgb(0,0,0)"/></g></svg>