<?xml version="1.0" encoding="UTF-8" standalone="no"?><!-- Generator: Gravit.io --><svg xmlns="http://www.w3.org/2000/svg" xmlns:xlink="http://www.w3.org/1999/xlink" style="isolation:isolate" viewBox="0 0 53.966 78.411" width="53.966pt" height="78.411pt"><defs><clipPath id="_clipPath_wFIBBoiZDpXPdN2mRs69wihJuJy0cRHP"><rect width="53.966" height="78.411"/></clipPath></defs><g clip-path="url(#_clipPath_wFIBBoiZDpXPdN2mRs69wihJuJy0cRHP)"><path d=" M 23.966 19.911 C 23.966 15.772 27.327 12.411 31.466 12.411 C 35.606 12.411 38.966 15.772 38.966 19.911 C 38.966 24.05 35.606 27.411 31.466 27.411 C 27.327 27.411 23.966 24.05 23.966 19.911 L 23.966 19.911 L 23.966 19.911 Z  M 0 66.394 C 0 62.54 3.129 59.411 6.983 59.411 C 10.837 59.411 13.966 62.54 13.966 66.394 C 13.966 70.248 10.837 73.377 6.983 73.377 C 3.129 73.377 0 70.248 0 66.394 L 0 66.394 Z  M 3.296 23.706 C 3.296 10.622 13.918 0 27.001 0 C 40.085 0 50.707 10.622 50.707 23.706 C 50.707 36.789 40.085 47.411 27.001 47.411 C 13.918 47.411 3.296 36.789 3.296 23.706 L 3.296 23.706 L 3.296 23.706 Z  M 27.001 64.929 C 27.001 57.487 33.043 51.446 40.484 51.446 C 47.925 51.446 53.966 57.487 53.966 64.929 C 53.966 72.37 47.925 78.411 40.484 78.411 C 33.043 78.411 27.001 72.37 27.001 64.929 Z " fill-rule="evenodd" fill="rgb(0,0,0)"/></g></svg>