<!DOCTYPE svg PUBLIC "-//W3C//DTD SVG 20010904//EN" "http://www.w3.org/TR/2001/REC-SVG-20010904/DTD/svg10.dtd">
<svg version="1.0" xmlns="http://www.w3.org/2000/svg" width="1000px" height="599px" viewBox="0 0 10000 5990" preserveAspectRatio="xMidYMid meet">
<g id="layer101" fill="#000000" stroke="none">
 <path d="M9056 5215 c-52 -18 -101 -68 -134 -135 -23 -47 -27 -67 -27 -145 0 -101 18 -151 93 -262 43 -64 99 -172 127 -246 l18 -47 32 80 c30 74 62 134 149 275 47 77 60 123 59 213 0 61 -5 82 -34 138 -61 121 -169 170 -283 129z m219 -120 c54 -53 11 -155 -65 -155 -45 0 -90 47 -90 95 0 78 99 116 155 60z"/>
 <path d="M2572 5150 c-84 -52 -79 -185 9 -232 96 -52 199 12 199 125 0 40 -5 53 -33 84 -29 31 -41 37 -88 40 -42 3 -61 0 -87 -17z"/>
 <path d="M7233 4998 l-173 -173 203 -203 c111 -111 209 -202 217 -202 8 0 106 91 218 203 l202 202 -175 175 -175 175 0 -105 0 -105 70 -70 70 -70 -105 -105 -105 -105 -105 105 -105 105 70 70 71 71 -3 102 -3 102 -172 -172z"/>
 <path d="M777 5129 c-100 -23 -190 -98 -233 -192 -23 -51 -28 -76 -29 -142 0 -71 4 -88 33 -147 36 -73 87 -124 161 -160 39 -19 62 -23 146 -23 85 0 106 4 143 23 63 34 124 93 158 154 27 49 29 61 29 153 0 86 -3 106 -24 145 -37 70 -61 98 -115 135 -80 54 -181 75 -269 54z m-17 -226 c-53 -60 -63 -108 -33 -170 25 -54 66 -75 136 -70 49 3 63 8 89 35 27 26 32 40 36 89 4 56 2 60 -37 108 -39 47 -54 99 -35 118 11 11 80 -31 109 -65 44 -52 57 -94 53 -169 -4 -79 -35 -134 -100 -176 -57 -38 -165 -45 -225 -14 -76 38 -133 128 -133 207 0 79 65 180 135 210 l30 12 3 -39 c3 -33 -2 -46 -28 -76z"/>
 <path d="M4049 5112 c-25 -11 -66 -33 -91 -50 -61 -42 -178 -169 -208 -225 l-24 -46 48 -70 c63 -93 160 -182 241 -222 119 -58 252 -49 361 25 91 61 234 229 234 274 0 30 -113 175 -178 228 -95 77 -144 97 -247 101 -70 2 -100 -1 -136 -15z m-129 -204 c-26 -57 -26 -152 -1 -218 l19 -49 -27 13 c-55 29 -101 96 -101 148 0 36 33 90 73 119 22 16 44 29 48 29 4 0 -1 -19 -11 -42z m574 -18 c45 -54 47 -122 6 -180 -19 -27 -77 -66 -85 -58 -2 2 5 28 15 58 11 30 19 66 20 80 0 26 -20 108 -35 144 -8 17 -6 17 22 2 17 -8 42 -29 57 -46z m-269 -16 c31 -20 49 -73 36 -106 -5 -14 -22 -35 -38 -48 -36 -28 -88 -22 -120 15 -70 80 33 197 122 139z"/>
 <path d="M2260 5100 c-24 -24 -26 -57 -4 -88 11 -16 25 -22 54 -22 29 0 43 6 54 22 34 48 4 108 -54 108 -17 0 -39 -9 -50 -20z"/>
 <path d="M5539 5037 c-81 -110 -119 -164 -119 -171 0 -3 26 -6 59 -6 l59 0 60 78 60 78 -31 42 c-18 23 -34 41 -37 42 -3 0 -26 -28 -51 -63z"/>
 <path d="M6031 5063 c-17 -21 -31 -41 -31 -46 0 -4 25 -41 56 -82 l56 -75 60 0 c47 0 59 3 55 14 -6 16 -157 226 -162 226 -2 0 -17 -17 -34 -37z"/>
 <path d="M5637 4924 c-42 -52 -77 -103 -77 -113 0 -10 34 -61 76 -114 l75 -97 114 0 114 0 81 101 c44 56 80 105 80 109 0 4 -36 53 -80 109 l-80 101 -113 0 -114 0 -76 -96z"/>
 <path d="M2438 4850 c-114 -34 -185 -157 -159 -274 34 -154 198 -230 340 -160 180 90 166 350 -23 429 -38 16 -114 18 -158 5z m175 -212 c26 -31 22 -82 -9 -107 -15 -12 -38 -21 -51 -21 -33 0 -73 42 -73 78 0 71 87 105 133 50z"/>
 <path d="M5701 4519 c-34 -83 -40 -79 129 -79 83 0 150 2 150 4 0 3 -12 32 -26 65 l-27 61 -102 0 -102 0 -22 -51z"/>
 <path d="M5765 3196 c-6 -39 -11 -46 -36 -51 -39 -9 -139 -75 -172 -115 -100 -119 -101 -245 -2 -395 51 -76 201 -241 243 -267 l32 -20 91 88 c99 97 171 189 215 274 23 45 28 68 28 125 0 128 -70 225 -209 292 -74 35 -75 36 -75 74 l0 39 -54 0 -55 0 -6 -44z m84 -166 c21 -10 105 -119 98 -126 -2 -3 -15 -1 -28 4 -14 6 -34 6 -48 1 -37 -14 -23 -71 33 -128 46 -48 73 -91 58 -91 -5 0 -29 7 -52 15 -23 8 -46 12 -51 9 -5 -3 -9 -27 -9 -55 0 -45 -2 -49 -24 -49 -21 0 -24 5 -28 50 -3 28 -8 53 -12 57 -3 4 -29 -3 -56 -14 -68 -29 -66 -10 5 67 50 54 55 64 55 105 0 39 -3 45 -21 45 -11 0 -29 -5 -41 -11 -34 -18 -31 -2 11 55 54 72 75 85 110 66z"/>
 <path d="M9090 3193 c0 -38 -1 -39 -119 -110 -65 -40 -124 -73 -131 -73 -6 0 -26 10 -42 22 l-31 21 -18 -24 c-24 -32 -24 -34 11 -59 l30 -21 0 -158 0 -157 -30 -17 c-35 -21 -36 -27 -12 -57 l18 -23 40 23 39 22 122 -74 c121 -72 122 -73 123 -110 0 -38 1 -38 40 -38 40 0 40 0 40 38 0 37 1 37 123 110 68 39 127 72 131 72 4 0 21 -10 37 -22 l31 -23 19 24 c25 31 24 37 -11 58 l-30 17 0 157 0 158 30 21 c35 25 35 27 11 59 l-18 24 -31 -21 c-16 -12 -35 -22 -41 -22 -7 0 -66 33 -131 73 -119 71 -120 72 -120 110 0 37 0 37 -40 37 -40 0 -40 0 -40 -37z m30 -148 c0 -33 -5 -38 -85 -91 -80 -54 -86 -56 -115 -44 -16 7 -30 16 -30 21 0 11 201 148 218 148 7 1 12 -12 12 -34z m152 -39 l111 -75 -36 -17 -36 -17 -86 56 c-80 54 -85 59 -85 92 0 19 5 35 10 35 6 0 61 -33 122 -74z m-152 -106 c0 -38 -1 -70 -3 -70 -17 0 -122 51 -122 59 0 12 94 80 113 80 8 1 12 -19 12 -69z m95 33 c31 -20 54 -40 52 -46 -2 -7 -110 -57 -124 -57 -2 0 -3 32 -3 70 0 41 4 70 10 70 6 0 35 -16 65 -37z m-302 -47 c14 -11 17 -29 17 -94 0 -70 -3 -83 -19 -92 -11 -5 -22 -10 -25 -10 -3 0 -6 47 -6 105 0 58 3 105 8 105 4 0 15 -7 25 -14z m467 -91 c0 -58 -3 -105 -6 -105 -3 0 -14 5 -25 10 -16 9 -19 22 -19 92 0 65 3 83 18 94 9 7 20 14 25 14 4 0 7 -47 7 -105z m-358 29 c28 -14 47 -29 42 -33 -22 -21 -101 -60 -107 -54 -11 11 -8 113 3 113 6 0 34 -12 62 -26z m288 -28 c0 -30 -4 -57 -8 -60 -8 -4 -116 53 -110 59 11 11 95 55 106 55 8 0 12 -17 12 -54z m-52 -83 c6 -3 12 -9 12 -14 0 -8 -113 -89 -124 -89 -4 0 -6 34 -6 75 l0 75 53 -21 c28 -12 58 -23 65 -26z m-138 -33 c0 -38 -2 -70 -6 -70 -10 0 -124 81 -124 89 0 9 88 49 113 50 15 1 17 -9 17 -69z m-85 -47 c82 -54 85 -57 85 -95 0 -46 8 -49 -139 51 l-104 71 34 14 c19 9 35 15 37 16 1 0 40 -25 87 -57z m312 42 c20 -8 34 -17 32 -19 -21 -21 -229 -153 -233 -148 -3 3 -6 20 -6 37 0 29 8 38 83 88 45 31 83 56 85 56 1 1 19 -6 39 -14z"/>
 <path d="M684 3173 c-117 -34 -212 -153 -222 -278 l-4 -55 41 0 41 0 0 -89 c0 -90 11 -143 38 -173 22 -26 38 -22 48 14 5 17 14 33 21 35 15 5 133 -136 133 -159 0 -11 -12 -31 -26 -45 l-26 -26 84 5 c63 4 95 11 134 31 100 51 171 163 203 321 9 47 20 89 24 92 4 4 21 -6 38 -22 l31 -29 -4 70 c-2 40 -12 86 -22 108 -24 48 -94 126 -136 151 l-33 19 7 -29 c27 -121 15 -188 -40 -232 -30 -24 -34 -32 -34 -75 0 -57 -13 -58 -47 -7 l-23 33 0 -29 c0 -16 -10 -49 -21 -74 -19 -41 -21 -44 -34 -27 -7 10 -16 41 -20 69 l-7 51 -30 -32 c-16 -17 -33 -31 -39 -31 -5 0 -9 26 -9 58 0 45 -5 65 -26 95 -48 71 -45 144 11 227 38 56 35 59 -51 33z"/>
 <path d="M2456 3165 c-6 -23 -11 -25 -64 -25 -72 0 -132 -16 -132 -36 0 -8 19 -23 43 -33 l42 -19 -30 -7 c-97 -23 -112 -30 -147 -65 -21 -21 -38 -46 -38 -55 0 -16 7 -17 60 -12 33 3 60 3 60 1 0 -3 -9 -17 -19 -32 -57 -78 -90 -297 -58 -375 43 -101 125 -29 208 183 46 115 109 352 109 406 0 19 5 34 10 34 6 0 10 -10 10 -22 0 -46 41 -214 79 -328 65 -194 139 -320 188 -320 41 0 58 36 61 129 4 104 -17 204 -58 277 l-29 52 59 -5 c55 -5 60 -4 60 14 0 30 -72 90 -122 103 -24 6 -54 15 -68 20 -25 8 -25 8 7 15 18 4 39 15 48 25 25 27 -1 40 -97 48 -73 6 -84 10 -93 30 -8 17 -18 22 -46 22 -31 0 -38 -4 -43 -25z"/>
 <path d="M804 3161 c-30 -18 -64 -74 -64 -105 0 -37 34 -97 67 -117 70 -44 170 -3 192 78 10 33 3 72 -18 112 -27 49 -120 67 -177 32z"/>
 <path d="M4040 3166 c0 -3 25 -12 55 -21 30 -8 55 -21 55 -28 0 -7 -43 -34 -95 -60 -108 -54 -124 -76 -86 -127 11 -16 21 -34 21 -39 0 -6 -24 -28 -52 -50 -134 -102 -143 -215 -26 -328 24 -23 70 -54 103 -70 51 -24 73 -28 150 -28 139 0 250 52 312 147 25 36 28 51 28 117 -1 59 -6 86 -23 118 -32 62 -85 108 -152 132 -71 26 -80 37 -49 59 44 31 69 61 69 85 0 30 -46 75 -91 87 -33 10 -219 14 -219 6z"/>
 <path d="M7158 3015 c-43 -74 -78 -139 -78 -145 0 -14 136 -181 156 -193 12 -7 125 64 229 144 7 5 55 -23 117 -66 58 -41 115 -75 126 -75 13 0 44 30 91 89 39 49 71 94 71 100 0 14 -152 281 -160 281 -3 0 -57 -63 -120 -140 -62 -77 -114 -140 -115 -140 -1 0 -53 63 -115 140 -63 77 -117 140 -120 140 -3 0 -40 -61 -82 -135z"/>
 <path d="M7385 2664 c-44 -30 -81 -59 -83 -64 -4 -10 167 -230 177 -229 9 1 172 212 173 224 1 11 -159 125 -176 125 -6 0 -47 -25 -91 -56z"/>
 <path d="M2503 1208 c-6 -7 -13 -25 -16 -39 -11 -42 -45 -78 -131 -133 -195 -126 -263 -275 -206 -457 18 -59 72 -149 89 -149 4 0 8 25 9 57 4 98 55 183 133 223 65 34 121 43 183 30 121 -25 201 -119 213 -249 6 -60 6 -61 25 -44 65 59 106 203 88 306 -20 110 -82 190 -219 282 -98 66 -141 115 -141 164 0 23 -12 27 -27 9z"/>
 <path d="M7390 1143 c-15 -68 -44 -135 -69 -157 -9 -8 -46 -23 -81 -32 -88 -22 -137 -49 -160 -87 -26 -43 -34 -105 -20 -158 12 -42 28 -61 134 -155 24 -21 27 -31 24 -64 -2 -22 0 -40 3 -40 17 0 90 96 101 131 9 33 8 51 -10 118 -12 43 -22 100 -22 127 0 46 2 50 75 122 l75 74 0 77 c0 70 -9 101 -30 101 -4 0 -13 -26 -20 -57z"/>
 <path d="M7520 1109 l0 -91 75 -71 c72 -69 75 -74 75 -117 0 -25 -9 -78 -20 -118 -25 -89 -25 -113 -1 -161 36 -70 114 -136 92 -78 -13 34 11 82 56 110 79 51 103 94 103 185 0 106 -41 149 -173 183 -53 13 -79 26 -99 48 -26 29 -68 142 -68 182 0 12 -7 19 -20 19 -19 0 -20 -7 -20 -91z"/>
 <path d="M5660 1168 c1 -7 23 -67 49 -133 l48 -120 -156 -5 -156 -5 120 -131 c66 -71 174 -189 239 -262 66 -73 121 -130 124 -128 2 3 -1 27 -6 53 -6 26 -16 82 -22 123 -6 41 -13 85 -16 98 l-4 22 157 0 156 0 -24 26 c-13 15 -100 97 -194 184 -93 86 -203 187 -242 225 -40 37 -73 61 -73 53z"/>
 <path d="M3961 1128 c-46 -13 -105 -54 -136 -93 -42 -56 -39 -59 98 -52 67 3 130 8 140 12 26 11 23 77 -5 109 -28 30 -53 37 -97 24z"/>
 <path d="M4314 1130 c-50 -19 -76 -119 -36 -135 9 -4 72 -9 140 -12 143 -7 149 -2 78 70 -63 63 -138 94 -182 77z"/>
 <path d="M669 1082 c-49 -32 -92 -83 -116 -139 -22 -55 -16 -317 10 -356 29 -45 60 -36 128 36 32 35 75 72 94 83 l35 19 0 182 c0 170 -1 183 -19 193 -35 18 -85 11 -132 -18z"/>
 <path d="M908 1099 c-16 -9 -18 -29 -18 -192 l0 -182 35 -19 c19 -11 62 -48 94 -83 113 -121 157 -65 149 192 l-3 123 -39 56 c-64 93 -160 139 -218 105z"/>
 <path d="M8870 890 l0 -171 103 3 102 3 3 93 3 92 74 0 75 0 0 75 0 75 -180 0 -180 0 0 -170z"/>
 <path d="M9268 968 l-3 -93 -62 -3 -63 -3 0 -74 0 -75 140 0 140 0 0 170 0 170 -75 0 -74 0 -3 -92z"/>
 <path d="M4115 965 c-70 -69 28 -179 104 -117 12 9 24 34 27 54 12 74 -77 117 -131 63z"/>
 <path d="M3905 836 c-73 -32 -104 -109 -91 -224 7 -65 44 -147 65 -147 9 0 23 27 36 71 12 39 38 98 58 131 39 64 67 133 67 164 0 16 -8 19 -52 19 -29 -1 -67 -7 -83 -14z"/>
 <path d="M4300 832 c0 -33 28 -104 67 -166 20 -33 46 -91 58 -130 14 -45 27 -71 36 -71 8 0 25 23 39 50 21 42 25 64 25 142 0 77 -3 96 -21 119 -38 51 -70 68 -139 72 -60 4 -65 3 -65 -16z"/>
 <path d="M7406 601 c-4 -57 -5 -105 -3 -107 12 -12 41 58 45 106 3 44 0 60 -15 79 l-20 24 -7 -102z"/>
 <path d="M7522 678 c-27 -56 -22 -117 12 -163 14 -18 15 -10 16 83 0 102 -7 122 -28 80z"/>
 <path d="M800 672 c-19 -9 -61 -43 -92 -74 -65 -65 -74 -100 -37 -134 19 -17 38 -19 178 -19 133 0 161 3 184 18 45 29 37 65 -31 134 -57 58 -113 93 -149 93 -10 0 -34 -8 -53 -18z"/>
 <path d="M8870 575 l0 -115 50 0 50 0 0 115 0 115 -50 0 -50 0 0 -115z"/>
 <path d="M9030 575 l0 -115 50 0 50 0 0 115 0 115 -50 0 -50 0 0 -115z"/>
 <path d="M9160 575 l0 -115 50 0 50 0 0 115 0 115 -50 0 -50 0 0 -115z"/>
 <path d="M9320 575 l0 -115 50 0 50 0 0 115 0 115 -50 0 -50 0 0 -115z"/>
 </g>

</svg>