<?xml version="1.0" encoding="UTF-8" standalone="no"?><!-- Generator: Gravit.io --><svg xmlns="http://www.w3.org/2000/svg" xmlns:xlink="http://www.w3.org/1999/xlink" style="isolation:isolate" viewBox="0 0 88.4 66.086" width="88.4pt" height="66.086pt"><defs><clipPath id="_clipPath_XX1u4yOSRMQ8Z7OFKEAwsjIHDRTaMoma"><rect width="88.4" height="66.086"/></clipPath></defs><g clip-path="url(#_clipPath_XX1u4yOSRMQ8Z7OFKEAwsjIHDRTaMoma)"><path d=" M 21.489 18.013 C 13.622 21.585 8.542 26.984 8.308 33.043 C 8.303 33.188 8.3 33.334 8.3 33.48 L 8.3 33.48 C 8.3 39.715 13.433 45.288 21.489 48.945 C 18.461 44.547 16.7 39.218 16.7 33.48 C 16.7 33.334 16.701 33.188 16.703 33.043 C 16.79 27.471 18.538 22.299 21.489 18.013 L 21.489 18.013 Z  M 66.911 18.013 C 74.778 21.585 79.858 26.984 80.092 33.043 C 80.097 33.188 80.1 33.334 80.1 33.48 C 80.1 39.715 74.967 45.288 66.911 48.945 C 69.939 44.547 71.7 39.218 71.7 33.48 C 71.7 33.334 71.699 33.188 71.697 33.043 C 71.61 27.471 69.862 22.299 66.911 18.013 L 66.911 18.013 Z  M 0 33.043 C 30.513 -11.029 60.009 -10.999 88.4 33.043 L 80.092 33.043 L 71.697 33.043 L 53.981 33.043 L 35.219 33.043 L 16.703 33.043 L 8.308 33.043 L 0 33.043 C 30.513 77.115 60.009 77.085 88.4 33.043 L 0 33.043 L 0 33.043 L 0 33.043 Z  M 35.2 33.643 C 35.2 33.441 35.206 33.241 35.219 33.043 C 35.529 28.134 39.614 24.243 44.6 24.243 C 49.586 24.243 53.671 28.134 53.981 33.043 C 53.994 33.241 54 33.441 54 33.643 C 54 38.831 49.788 43.043 44.6 43.043 C 39.412 43.043 35.2 38.831 35.2 33.643 Z " fill-rule="evenodd" fill="rgb(0,0,0)"/></g></svg>