<?xml version="1.0" encoding="UTF-8" standalone="no"?><!-- Generator: Gravit.io --><svg xmlns="http://www.w3.org/2000/svg" xmlns:xlink="http://www.w3.org/1999/xlink" style="isolation:isolate" viewBox="0 0 83 66" width="83pt" height="66pt"><defs><clipPath id="_clipPath_XL4M4CuKZzh9IMHEqwl9Yj6yRMa8V0Mp"><rect width="83" height="66"/></clipPath></defs><g clip-path="url(#_clipPath_XL4M4CuKZzh9IMHEqwl9Yj6yRMa8V0Mp)"><path d=" M 0 42 L 17 66 L 25 58 L 13 42 L 0 42 L 0 42 L 0 42 Z  M 57 0 L 51 12 L 31 12 L 25 0 L 57 0 L 57 0 L 57 0 Z  M 29.566 58 L 53.434 58 L 69 37.024 L 52.396 15 L 29.566 15 L 14 37.024 L 14 37.024 L 29.566 58 L 29.566 58 Z  M 83 42 L 66 66 L 58 58 L 70 42 L 83 42 Z " fill-rule="evenodd" fill="rgb(0,0,0)"/></g></svg>