<?xml version="1.0" encoding="UTF-8" standalone="no"?>
<!-- Generator: Gravit.io -->
<svg xmlns="http://www.w3.org/2000/svg" xmlns:xlink="http://www.w3.org/1999/xlink" style="isolation:isolate" viewBox="0 0 400 400" width="400pt" height="400pt"><defs><clipPath id="_clipPath_MXP5AJ9nMFg6hKqo34Vl1mHo2Znxygdm"><rect width="400" height="400"/></clipPath></defs><g clip-path="url(#_clipPath_MXP5AJ9nMFg6hKqo34Vl1mHo2Znxygdm)"><path d=" M 1081.367 419.965 L 1082.303 419.965 L 1082.303 419.965 Q 1084.143 420.675 1084.143 421.352 L 1084.143 421.352 L 1084.143 422.288 L 1084.143 422.288 Q 1084.143 423.224 1083.239 423.224 L 1083.239 423.224 L 1081.851 423.224 L 1081.851 423.224 Q 1071.588 423.224 1069.328 430.616 L 1069.328 430.616 L 1069.328 431.552 L 1069.328 431.552 Q 1075.364 431.552 1080.431 441.299 L 1080.431 441.299 L 1086.467 441.299 L 1086.467 441.299 Q 1087.403 441.428 1087.403 442.203 L 1087.403 442.203 L 1087.403 443.139 L 1087.403 443.139 Q 1087.403 443.816 1086.015 444.526 L 1086.015 444.526 L 1079.979 444.526 L 1079.979 444.526 Q 1077.268 455.662 1069.328 455.662 L 1069.328 455.662 L 1069.328 455.662 Q 1069.328 462.052 1082.755 463.053 L 1082.755 463.053 L 1082.755 463.053 Q 1084.143 463.053 1084.143 463.989 L 1084.143 463.989 L 1084.143 464.925 L 1084.143 464.925 Q 1084.143 465.602 1082.755 466.313 L 1082.755 466.313 L 1082.755 466.313 Q 1068.844 466.313 1065.617 455.662 L 1065.617 455.662 L 1065.617 455.662 Q 1055.869 451.885 1055.869 444.526 L 1055.869 444.526 L 1050.318 444.526 L 1050.318 444.526 Q 1049.64 444.526 1048.93 443.139 L 1048.93 443.139 L 1048.93 442.203 L 1048.93 442.203 Q 1049.059 441.299 1049.866 441.299 L 1049.866 441.299 L 1056.353 441.299 L 1056.353 441.299 Q 1056.353 435.425 1066.068 431.552 L 1066.068 431.552 L 1066.068 431.552 Q 1066.068 421.352 1081.367 419.965 L 1081.367 419.965 Z  M 1059.129 444.526 L 1059.129 444.526 L 1059.129 444.526 Q 1059.129 450.433 1067.456 452.402 L 1067.456 452.402 L 1068.392 452.402 L 1068.392 452.402 Q 1076.752 451.078 1076.752 444.075 L 1076.752 444.075 L 1076.752 442.687 L 1076.752 442.687 Q 1076.752 436.587 1067.94 434.811 L 1067.94 434.811 L 1067.94 434.811 Q 1060.227 434.811 1059.129 444.526 Z  M 1067.004 441.299 L 1067.004 441.299 L 1068.844 441.299 L 1068.844 441.299 Q 1070.716 442.203 1070.716 444.075 L 1070.716 444.075 L 1070.716 444.075 Q 1070.071 446.398 1067.456 446.398 L 1067.456 446.398 L 1067.456 446.398 Q 1066.746 446.398 1065.617 444.526 L 1065.617 444.526 L 1065.617 442.687 L 1065.617 442.687 Q 1065.617 442.009 1067.004 441.299 Z " fill="rgb(0,0,0)"/><path d=" M 159.773 219.657 L 159.773 219.657 L 160.676 219.657 L 160.676 219.657 Q 161.709 219.657 162.903 226.757 L 162.903 226.757 L 162.903 226.757 Q 170.424 229.824 170.424 236.053 L 170.424 236.053 L 170.424 238.732 L 170.424 238.732 Q 170.424 242.411 166.454 246.704 L 166.454 246.704 L 166.454 246.704 Q 169.552 262.745 169.552 264.907 L 169.552 264.907 L 168.229 265.779 L 168.229 265.779 Q 165.55 264.455 165.55 257.355 L 165.55 257.355 L 165.098 257.355 L 165.098 257.355 Q 161.677 258.678 158.901 258.678 L 158.901 258.678 L 158.449 258.678 L 158.449 258.678 Q 155.544 258.678 152.252 256.451 L 152.252 256.451 L 152.252 256.451 Q 150.058 265.779 149.154 265.779 L 149.154 265.779 L 148.25 265.779 L 148.25 265.779 Q 147.605 265.779 146.927 264.455 L 146.927 264.455 L 151.8 246.252 L 151.8 246.252 Q 147.798 242.863 147.798 238.732 L 147.798 238.732 L 147.798 236.505 L 147.798 236.505 Q 147.798 229.468 157.126 225.854 L 157.126 225.854 L 157.126 225.854 Q 158.74 219.657 159.773 219.657 Z  M 150.929 236.053 L 150.929 236.053 L 150.929 238.732 L 150.929 238.732 Q 152.93 245.832 158.03 245.832 L 158.03 245.832 L 160.224 245.832 L 160.224 245.832 Q 165.744 245.832 167.777 237.408 L 167.777 237.408 L 167.777 237.408 Q 167.777 230.179 158.449 228.984 L 158.449 228.984 L 158.449 228.984 Q 150.929 231.179 150.929 236.053 Z  M 158.449 235.181 L 158.449 235.181 L 159.773 235.181 L 159.773 235.181 Q 160.483 235.181 161.548 236.956 L 161.548 236.956 L 161.548 238.28 L 161.548 238.28 Q 160.676 240.055 158.901 240.055 L 158.901 240.055 L 158.901 240.055 Q 156.674 239.442 156.674 236.956 L 156.674 236.956 L 156.674 236.956 Q 156.674 236.246 158.449 235.181 Z  M 154.479 248.479 L 154.479 248.479 L 154.479 248.479 Q 153.124 252.223 153.124 253.353 L 153.124 253.353 L 153.124 253.353 Q 156.319 255.58 158.03 255.58 L 158.03 255.58 L 160.224 255.58 L 160.224 255.58 Q 161.257 255.58 164.678 253.804 L 164.678 253.804 L 164.678 253.804 Q 164.227 250.609 163.323 248.027 L 163.323 248.027 L 163.323 248.027 Q 161.709 248.931 159.773 248.931 L 159.773 248.931 L 158.449 248.931 L 158.449 248.931 Q 155.803 248.479 154.479 248.479 Z " fill="rgb(0,0,0)"/><path d=" M 310.995 28.17 L 310.995 28.17 L 310.995 28.17 Q 325.777 28.17 330.102 46.019 L 330.102 46.019 L 330.102 46.019 Q 330.554 48.343 330.554 49.86 L 330.554 49.86 L 329.263 50.699 L 322.033 50.699 L 318.644 56.67 L 318.644 56.67 Q 314.739 60.059 311.414 60.059 L 311.414 60.059 L 309.704 60.059 L 309.704 60.059 Q 301.215 60.059 299.504 48.569 L 299.504 48.569 L 299.504 48.569 Q 299.504 40.08 310.543 37.95 L 310.543 37.95 L 310.543 37.95 Q 318.321 37.95 321.613 46.89 L 321.613 46.89 L 321.613 47.729 L 327.552 47.729 L 327.552 47.729 Q 325.099 37.337 319.903 33.69 L 319.903 33.69 L 319.903 33.69 Q 315.481 31.14 310.543 31.14 L 310.543 31.14 L 310.543 31.14 Q 297.31 31.14 293.533 43.889 L 293.533 43.889 L 293.533 43.889 Q 293.211 48.149 292.694 48.149 L 292.694 48.149 L 292.694 48.149 Q 294.631 67.289 310.543 67.289 L 310.543 67.289 L 310.543 67.289 Q 312.253 67.514 312.253 68.58 L 312.253 68.58 L 312.253 73.679 L 312.253 73.679 Q 312.253 74.518 311.414 74.518 L 311.414 74.518 L 310.123 74.518 L 310.123 74.518 Q 309.284 74.518 309.284 73.679 L 309.284 73.679 L 309.284 70.258 L 308.864 70.258 L 308.864 70.258 Q 292.985 70.258 290.144 49.44 L 290.144 49.44 L 290.144 47.31 L 290.144 47.31 Q 290.144 34.496 303.313 29.461 L 303.313 29.461 L 303.313 29.461 Q 304.862 28.59 310.995 28.17 Z  M 302.474 49.02 L 302.474 49.02 L 302.474 49.02 Q 303.862 57.089 310.123 57.089 L 310.123 57.089 L 310.995 57.089 L 310.995 57.089 Q 317.256 57.089 318.644 49.44 L 318.644 49.44 L 318.644 49.02 L 318.644 49.02 Q 317.353 40.919 310.543 40.919 L 310.543 40.919 L 310.543 40.919 Q 302.474 42.372 302.474 49.02 Z  M 309.704 46.89 L 309.704 46.89 L 311.414 46.89 L 311.414 46.89 Q 312.286 47.052 313.092 49.02 L 313.092 49.02 L 313.092 49.02 Q 313.092 51.57 310.123 51.57 L 310.123 51.57 L 310.123 51.57 Q 309.478 51.57 308.413 49.86 L 308.413 49.86 L 308.413 48.149 L 308.413 48.149 Q 308.413 47.536 309.704 46.89 Z " fill="rgb(0,0,0)"/><path d=" M 302.353 115.734 L 302.353 115.734 L 302.353 115.734 Q 312.649 117.865 312.649 125.191 L 312.649 125.191 L 314.812 125.191 L 314.812 125.191 Q 317.394 125.449 317.394 126.45 L 317.394 126.45 L 317.394 127.321 L 317.394 127.321 Q 317.394 128.193 312.649 128.612 L 312.649 128.612 L 312.649 128.612 Q 312.649 134.938 303.644 138.069 L 303.644 138.069 L 303.644 138.069 Q 303.225 138.069 303.225 138.489 L 303.225 138.489 L 303.225 139.78 L 303.225 139.78 Q 311.552 139.78 313.101 151.367 L 313.101 151.367 L 313.101 151.367 Q 310.455 161.663 302.773 161.663 L 302.773 161.663 L 301.062 161.663 L 301.062 161.663 Q 293.574 161.663 290.766 152.206 L 290.766 152.206 L 287.765 152.206 L 287.765 152.206 Q 287.152 152.206 286.474 150.947 L 286.474 150.947 L 286.474 150.076 L 286.474 150.076 Q 286.603 149.204 287.345 149.204 L 287.345 149.204 L 290.766 149.204 L 290.766 149.204 Q 290.766 142.878 300.223 139.328 L 300.223 139.328 L 300.223 138.489 L 294.64 135.487 L 294.64 135.487 Q 290.766 131.808 290.766 126.45 L 290.766 126.45 L 290.766 126.03 L 290.766 126.03 Q 290.766 117.348 302.353 115.734 Z  M 293.768 126.45 L 293.768 126.45 L 293.768 127.321 L 293.768 127.321 Q 293.768 133.647 301.934 135.035 L 301.934 135.035 L 301.934 135.035 Q 309.196 135.035 310.067 126.03 L 310.067 126.03 L 310.067 126.03 Q 310.067 120.414 301.934 118.736 L 301.934 118.736 L 301.482 118.736 L 301.482 118.736 Q 293.768 120.156 293.768 126.45 Z  M 301.934 124.32 L 301.934 124.32 L 301.934 124.32 Q 303.87 125.159 304.064 126.03 L 304.064 126.03 L 304.064 127.741 L 304.064 127.741 Q 304.064 128.354 302.773 129.032 L 302.773 129.032 L 301.062 129.032 L 301.062 129.032 Q 300.385 129.032 299.352 127.321 L 299.352 127.321 L 299.352 127.321 Q 299.352 124.32 301.934 124.32 Z  M 293.768 149.656 L 293.768 149.656 L 293.768 150.947 L 293.768 150.947 Q 295.382 158.661 300.643 158.661 L 300.643 158.661 L 302.353 158.661 L 302.353 158.661 Q 308.68 158.661 310.067 150.495 L 310.067 150.495 L 310.067 150.495 Q 308.486 142.362 301.934 142.362 L 301.934 142.362 L 301.934 142.362 Q 293.768 144.008 293.768 149.656 Z " fill="rgb(0,0,0)"/><path d=" M 219.176 326.523 L 219.176 326.523 L 220.563 326.523 L 220.563 326.523 Q 237.299 326.523 241.586 343.322 L 241.586 343.322 L 241.586 343.322 Q 242.027 343.795 242.027 347.073 L 242.027 347.073 L 242.027 349.406 L 242.027 349.406 Q 242.027 367.813 218.703 371.343 L 218.703 371.343 L 218.23 371.343 L 218.23 371.343 Q 217.285 371.343 217.285 370.397 L 217.285 370.397 L 217.285 369.483 L 217.285 369.483 Q 217.285 368.254 226.173 366.678 L 226.173 366.678 L 226.173 366.678 Q 238.781 360.847 238.781 349.878 L 238.781 349.878 L 238.781 346.6 L 238.781 346.6 Q 238.781 332.511 221.508 329.801 L 221.508 329.801 L 221.508 336.798 L 221.508 336.798 Q 229.388 336.798 231.752 347.546 L 231.752 347.546 L 231.752 349.878 L 231.752 349.878 Q 229.388 360.595 221.035 360.595 L 221.035 360.595 L 218.703 360.595 L 218.703 360.595 Q 207.955 358.231 207.955 349.878 L 207.955 349.878 L 207.955 347.546 L 207.955 347.546 Q 210.319 336.798 218.23 336.798 L 218.23 336.798 L 218.23 327.468 L 218.23 327.468 Q 218.388 326.523 219.176 326.523 Z  M 210.76 348.933 L 210.76 348.933 L 210.76 348.933 Q 212.683 357.349 219.176 357.349 L 219.176 357.349 L 220.563 357.349 L 220.563 357.349 Q 228.505 356.025 228.505 349.406 L 228.505 349.406 L 228.505 347.073 L 228.505 347.073 Q 228.505 341.904 220.09 339.603 L 220.09 339.603 L 220.09 339.603 Q 210.76 341.431 210.76 348.933 Z  M 219.176 346.128 L 219.176 346.128 L 220.563 346.128 L 220.563 346.128 Q 221.287 346.128 222.422 347.987 L 222.422 347.987 L 222.422 349.406 L 222.422 349.406 Q 222.422 350.131 220.563 351.265 L 220.563 351.265 L 219.176 351.265 L 219.176 351.265 Q 218.419 351.265 217.285 349.406 L 217.285 349.406 L 217.285 347.987 L 217.285 347.987 Q 217.285 347.262 219.176 346.128 Z " fill="rgb(0,0,0)"/><path d=" M 100.027 48.051 L 100.963 48.051 L 100.963 48.051 Q 102.803 48.761 102.803 49.439 L 102.803 49.439 L 102.803 50.375 L 102.803 50.375 Q 102.803 51.311 101.899 51.311 L 101.899 51.311 L 100.511 51.311 L 100.511 51.311 Q 90.247 51.311 87.988 58.702 L 87.988 58.702 L 87.988 59.638 L 87.988 59.638 Q 94.024 59.638 99.091 69.386 L 99.091 69.386 L 105.127 69.386 L 105.127 69.386 Q 106.063 69.515 106.063 70.289 L 106.063 70.289 L 106.063 71.225 L 106.063 71.225 Q 106.063 71.903 104.675 72.613 L 104.675 72.613 L 98.639 72.613 L 98.639 72.613 Q 95.928 83.748 87.988 83.748 L 87.988 83.748 L 87.988 83.748 Q 87.988 90.139 101.415 91.139 L 101.415 91.139 L 101.415 91.139 Q 102.803 91.139 102.803 92.075 L 102.803 92.075 L 102.803 93.011 L 102.803 93.011 Q 102.803 93.689 101.415 94.399 L 101.415 94.399 L 101.415 94.399 Q 87.504 94.399 84.276 83.748 L 84.276 83.748 L 84.276 83.748 Q 74.529 79.972 74.529 72.613 L 74.529 72.613 L 68.978 72.613 L 68.978 72.613 Q 68.3 72.613 67.59 71.225 L 67.59 71.225 L 67.59 70.289 L 67.59 70.289 Q 67.719 69.386 68.526 69.386 L 68.526 69.386 L 75.013 69.386 L 75.013 69.386 Q 75.013 63.511 84.728 59.638 L 84.728 59.638 L 84.728 59.638 Q 84.728 49.439 100.027 48.051 L 100.027 48.051 Z  M 77.789 72.613 L 77.789 72.613 L 77.789 72.613 Q 77.789 78.52 86.116 80.488 L 86.116 80.488 L 87.052 80.488 L 87.052 80.488 Q 95.412 79.165 95.412 72.161 L 95.412 72.161 L 95.412 70.773 L 95.412 70.773 Q 95.412 64.673 86.6 62.898 L 86.6 62.898 L 86.6 62.898 Q 78.886 62.898 77.789 72.613 Z  M 85.664 69.386 L 85.664 69.386 L 87.504 69.386 L 87.504 69.386 Q 89.376 70.289 89.376 72.161 L 89.376 72.161 L 89.376 72.161 Q 88.73 74.485 86.116 74.485 L 86.116 74.485 L 86.116 74.485 Q 85.406 74.485 84.276 72.613 L 84.276 72.613 L 84.276 70.773 L 84.276 70.773 Q 84.276 70.096 85.664 69.386 Z " fill="rgb(0,0,0)"/><path d=" M 377.625 110.429 L 378.561 110.429 L 378.561 110.429 Q 380.401 111.139 380.401 111.816 L 380.401 111.816 L 380.401 112.752 L 380.401 112.752 Q 380.401 113.688 379.497 113.688 L 379.497 113.688 L 378.109 113.688 L 378.109 113.688 Q 367.846 113.688 365.586 121.08 L 365.586 121.08 L 365.586 122.016 L 365.586 122.016 Q 371.622 122.016 376.689 131.763 L 376.689 131.763 L 382.725 131.763 L 382.725 131.763 Q 383.661 131.892 383.661 132.667 L 383.661 132.667 L 383.661 133.603 L 383.661 133.603 Q 383.661 134.28 382.273 134.99 L 382.273 134.99 L 376.237 134.99 L 376.237 134.99 Q 373.526 146.125 365.586 146.125 L 365.586 146.125 L 365.586 146.125 Q 365.586 152.516 379.013 153.517 L 379.013 153.517 L 379.013 153.517 Q 380.401 153.517 380.401 154.453 L 380.401 154.453 L 380.401 155.389 L 380.401 155.389 Q 380.401 156.066 379.013 156.776 L 379.013 156.776 L 379.013 156.776 Q 365.102 156.776 361.875 146.125 L 361.875 146.125 L 361.875 146.125 Q 352.127 142.349 352.127 134.99 L 352.127 134.99 L 346.576 134.99 L 346.576 134.99 Q 345.898 134.99 345.188 133.603 L 345.188 133.603 L 345.188 132.667 L 345.188 132.667 Q 345.317 131.763 346.124 131.763 L 346.124 131.763 L 352.612 131.763 L 352.612 131.763 Q 352.612 125.889 362.327 122.016 L 362.327 122.016 L 362.327 122.016 Q 362.327 111.816 377.625 110.429 L 377.625 110.429 Z  M 355.387 134.99 L 355.387 134.99 L 355.387 134.99 Q 355.387 140.897 363.714 142.866 L 363.714 142.866 L 364.65 142.866 L 364.65 142.866 Q 373.01 141.542 373.01 134.539 L 373.01 134.539 L 373.01 133.151 L 373.01 133.151 Q 373.01 127.051 364.199 125.275 L 364.199 125.275 L 364.199 125.275 Q 356.485 125.275 355.387 134.99 Z  M 363.263 131.763 L 363.263 131.763 L 365.102 131.763 L 365.102 131.763 Q 366.974 132.667 366.974 134.539 L 366.974 134.539 L 366.974 134.539 Q 366.329 136.862 363.714 136.862 L 363.714 136.862 L 363.714 136.862 Q 363.004 136.862 361.875 134.99 L 361.875 134.99 L 361.875 133.151 L 361.875 133.151 Q 361.875 132.473 363.263 131.763 Z " fill="rgb(0,0,0)"/><path d=" M 88.833 310.687 L 88.833 310.687 L 88.833 310.687 Q 105.857 316.42 105.857 332.508 L 105.857 332.508 L 105.857 332.508 Q 105.857 344.295 90.588 352.134 L 90.588 352.134 L 89.711 352.134 L 89.711 352.134 Q 88.833 352.134 88.833 351.257 L 88.833 351.257 L 88.833 350.379 L 88.833 350.379 Q 96.175 345.231 97.579 343.857 L 97.579 343.857 L 97.579 343.857 Q 101.82 339.352 102.815 333.385 L 102.815 333.385 L 95.824 333.385 L 95.824 333.385 Q 95.824 340.639 84.914 342.54 L 84.914 342.54 L 84.914 342.54 Q 77.309 342.54 74.003 334.234 L 74.003 334.234 L 74.003 333.385 L 66.574 333.385 L 66.574 333.385 Q 66.574 343.506 82.72 350.379 L 82.72 350.379 L 82.72 351.696 L 82.72 351.696 Q 82.72 352.573 81.872 352.573 L 81.872 352.573 L 81.872 352.573 Q 75.554 352.573 66.574 342.54 L 66.574 342.54 L 66.574 342.54 Q 63.532 337.071 63.532 332.069 L 63.532 332.069 L 63.532 332.069 Q 63.532 317.678 79.239 311.126 L 79.239 311.126 L 80.117 312.442 L 80.117 313.291 L 80.117 313.291 Q 67.013 321.13 67.013 328.998 L 67.013 328.998 L 67.013 330.314 L 73.565 330.314 L 73.565 330.314 Q 73.565 322.036 84.914 319.843 L 84.914 319.843 L 85.791 319.843 L 85.791 319.843 Q 96.263 322.417 96.263 330.314 L 96.263 330.314 L 101.937 330.314 L 102.815 329.875 L 102.815 329.875 Q 102.815 323.938 95.385 317.239 L 95.385 317.239 L 87.517 312.852 L 87.517 312.004 L 87.517 312.004 Q 87.517 311.36 88.833 310.687 Z  M 76.636 331.192 L 76.636 331.192 L 76.636 331.192 Q 77.923 339.469 84.914 339.469 L 84.914 339.469 L 85.791 339.469 L 85.791 339.469 Q 91.466 339.469 93.191 331.63 L 93.191 331.63 L 93.191 330.753 L 93.191 330.753 Q 93.191 324.347 84.914 322.914 L 84.914 322.914 L 84.914 322.914 Q 76.636 324.201 76.636 331.192 Z  M 84.914 328.588 L 84.914 328.588 L 84.914 328.588 Q 87.517 329.466 87.517 332.069 L 87.517 332.069 L 87.517 332.069 Q 85.323 333.824 84.914 333.824 L 84.914 333.824 L 84.914 333.824 Q 82.925 332.976 82.72 332.069 L 82.72 332.069 L 82.72 330.314 L 82.72 330.314 Q 82.925 329.407 84.914 328.588 Z " fill="rgb(0,0,0)"/><path d=" M 164.937 294.758 L 164.937 294.758 L 165.803 294.758 L 165.803 294.758 Q 166.435 294.758 167.134 296.056 L 167.134 296.056 L 167.134 307.805 L 167.134 307.805 Q 174.656 307.805 176.687 318.656 L 176.687 318.656 L 176.687 318.656 Q 174.656 329.507 167.134 329.507 L 167.134 329.507 L 167.134 329.507 Q 167.134 329.939 166.701 329.939 L 166.701 329.939 L 167.134 330.838 L 167.134 339.958 L 167.134 339.958 Q 167.134 342.188 165.803 342.554 L 165.803 342.554 L 164.937 342.554 L 164.937 342.554 Q 164.072 342.554 164.072 341.689 L 164.072 341.689 L 164.072 329.939 L 164.072 329.939 Q 156.816 329.939 154.087 319.521 L 154.087 319.521 L 154.087 319.089 L 154.087 319.089 Q 155.651 307.805 163.207 307.805 L 163.207 307.805 L 163.207 307.805 Q 163.207 307.372 164.072 307.372 L 164.072 307.372 L 164.072 295.623 L 164.072 295.623 Q 164.205 294.758 164.937 294.758 Z  M 157.115 318.223 L 157.115 318.223 L 157.115 319.089 L 157.115 319.089 Q 158.613 326.91 164.937 326.91 L 164.937 326.91 L 165.37 326.91 L 165.37 326.91 Q 173.625 325.612 173.625 318.656 L 173.625 318.656 L 173.625 318.656 Q 172.193 310.401 165.37 310.401 L 165.37 310.401 L 165.37 310.401 Q 157.115 311.799 157.115 318.223 Z  M 165.37 316.06 L 165.37 316.06 L 165.37 316.06 Q 167.367 316.892 167.567 317.79 L 167.567 317.79 L 167.567 319.521 L 167.567 319.521 Q 167.367 320.42 165.37 321.252 L 165.37 321.252 L 165.37 321.252 Q 162.774 321.252 162.774 318.223 L 162.774 318.223 L 162.774 318.223 Q 163.606 316.659 165.37 316.06 Z " fill="rgb(0,0,0)"/><path d=" M 355.919 259.731 L 355.919 259.731 L 355.919 259.731 Q 363.277 259.731 367.376 268.897 L 367.376 268.897 L 367.376 268.897 Q 370.055 268.897 382.546 269.381 L 382.546 269.381 L 383.45 270.737 L 383.45 270.737 Q 378.382 279.031 372.896 284.97 L 372.896 284.97 L 372.444 284.97 L 372.444 284.97 Q 367.247 279.451 364.181 279.451 L 364.181 279.451 L 364.181 279.451 Q 364.181 281.581 356.822 283.582 L 356.822 283.582 L 357.306 284.518 L 357.306 289.101 L 358.21 288.65 L 364.633 288.65 L 364.633 288.65 Q 365.279 288.65 366.021 290.005 L 366.021 290.005 L 366.021 290.941 L 366.021 290.941 Q 366.021 291.845 365.085 291.845 L 365.085 291.845 L 357.758 291.845 L 356.822 292.297 L 357.306 293.233 L 357.306 298.268 L 362.341 303.787 L 362.341 305.175 L 362.341 305.175 Q 362.341 306.078 361.405 306.078 L 361.405 306.078 L 360.502 306.078 L 355.467 301.495 L 355.467 301.495 Q 355.144 301.495 350.851 306.078 L 350.851 306.078 L 349.496 306.078 L 349.496 306.078 Q 348.56 306.078 348.56 305.175 L 348.56 305.175 L 348.56 304.239 L 354.079 297.816 L 354.079 283.582 L 354.079 283.582 Q 347.301 283.582 343.525 273.512 L 343.525 273.512 L 343.525 271.673 L 343.525 271.673 Q 343.525 261.603 355.919 259.731 Z  M 346.752 272.576 L 346.752 272.576 L 346.752 272.576 Q 349.108 280.387 354.531 280.387 L 354.531 280.387 L 355.919 280.387 L 355.919 280.387 Q 364.181 279.064 364.181 272.124 L 364.181 272.124 L 364.181 271.188 L 364.181 271.188 Q 364.181 264.443 355.467 262.958 L 355.467 262.958 L 355.467 262.958 Q 347.85 262.958 346.752 272.576 Z  M 354.531 269.381 L 354.531 269.381 L 356.37 269.381 L 356.37 269.381 Q 358.21 270.285 358.21 272.124 L 358.21 272.124 L 358.21 272.124 Q 357.468 274.416 355.467 274.416 L 355.467 274.416 L 355.467 274.416 Q 353.369 273.512 353.175 272.576 L 353.175 272.576 L 353.175 270.737 L 353.175 270.737 Q 353.175 270.091 354.531 269.381 Z  M 371.508 272.124 L 367.376 272.124 L 367.376 272.124 Q 367.376 273.867 366.473 276.708 L 366.473 276.708 L 366.473 276.708 Q 369.668 277.611 372.444 280.387 L 372.444 280.387 L 372.444 280.387 Q 373.025 280.387 378.415 272.576 L 378.415 272.576 L 378.415 272.576 Q 373.832 272.124 371.508 272.124 L 371.508 272.124 Z " fill="rgb(0,0,0)"/><path d=" M 236.296 71.371 L 236.296 71.371 L 236.296 71.371 Q 246.858 71.371 248.684 78.246 L 248.684 78.246 L 248.684 78.246 Q 247.682 79.714 244.531 86.051 L 244.531 86.051 L 244.531 86.051 Q 247.288 88.415 247.288 93.857 L 247.288 93.857 L 247.288 93.857 Q 247.288 103.238 233.539 106.246 L 233.539 106.246 L 233.539 106.246 Q 230.316 109.182 230.316 109.469 L 230.316 109.469 L 230.316 109.469 Q 247.646 119.351 248.684 120.962 L 248.684 120.962 L 248.684 121.857 L 248.684 121.857 Q 248.684 122.788 247.754 122.788 L 247.754 122.788 L 246.393 122.788 L 246.393 122.788 Q 226.628 111.116 225.733 109.934 L 225.733 109.934 L 225.733 109.003 L 225.733 109.003 Q 225.733 108.609 230.782 104.42 L 230.782 104.42 L 230.782 103.954 L 230.782 103.954 Q 223.441 101.197 223.441 93.392 L 223.441 93.392 L 223.441 93.392 Q 223.441 88.2 226.628 85.586 L 226.628 85.586 L 226.628 85.586 Q 222.51 77.78 222.51 76.42 L 222.51 76.42 L 222.51 75.954 L 222.51 75.954 Q 225.697 71.371 236.296 71.371 Z  M 226.198 76.42 L 226.198 76.42 L 226.198 76.42 Q 226.198 77.315 228.955 83.294 L 228.955 83.294 L 228.955 83.294 Q 232.071 81.468 234.434 81.468 L 234.434 81.468 L 236.296 81.468 L 236.296 81.468 Q 237.979 81.468 242.239 83.294 L 242.239 83.294 L 242.239 83.294 Q 244.996 78.711 244.996 77.351 L 244.996 77.351 L 244.996 77.351 Q 242.204 74.594 235.83 74.594 L 235.83 74.594 L 235.83 74.594 Q 231.175 74.594 226.198 76.42 Z  M 226.628 93.392 L 226.628 93.392 L 226.628 93.392 Q 228.024 102.128 235.365 102.128 L 235.365 102.128 L 235.365 102.128 Q 244.101 100.624 244.101 93.392 L 244.101 93.392 L 244.101 92.962 L 244.101 92.962 Q 244.101 86.195 235.83 84.691 L 235.83 84.691 L 234.899 84.691 L 234.899 84.691 Q 228.168 84.691 226.628 93.392 Z  M 234.899 90.635 L 234.899 90.635 L 234.899 90.635 Q 238.122 90.635 238.122 93.392 L 238.122 93.392 L 238.122 93.392 Q 237.227 95.504 236.296 95.719 L 236.296 95.719 L 234.434 95.719 L 234.434 95.719 Q 233.503 95.504 232.608 93.392 L 232.608 93.392 L 232.608 93.392 Q 233.252 91.53 234.899 90.635 Z " fill="rgb(0,0,0)"/><path d=" M 174.716 79.561 L 174.716 79.561 L 176.039 79.561 L 176.039 79.561 Q 176.961 79.715 176.961 80.454 L 176.961 80.454 L 176.961 81.346 L 172.009 86.729 L 172.009 86.729 Q 173.67 89.436 174.254 93.466 L 174.254 93.466 L 174.254 93.466 Q 174.254 101.772 164.379 105.125 L 164.379 105.125 L 164.379 105.125 Q 163.949 105.125 163.949 105.587 L 163.949 105.587 L 163.949 116.354 L 163.949 116.354 Q 163.949 122.476 157.673 123.521 L 157.673 123.521 L 155.427 123.521 L 155.427 123.521 Q 149.798 123.521 148.69 115.892 L 148.69 115.892 L 148.69 113.647 L 148.69 113.647 Q 148.844 112.755 149.583 112.755 L 149.583 112.755 L 150.475 112.755 L 150.475 112.755 Q 151.705 112.755 152.29 118.599 L 152.29 118.599 L 152.29 118.599 Q 154.166 120.384 155.858 120.384 L 155.858 120.384 L 157.212 120.384 L 157.212 120.384 Q 160.811 120.384 160.811 116.354 L 160.811 116.354 L 160.811 105.587 L 154.535 101.988 L 154.535 101.988 Q 150.936 98.111 150.936 94.358 L 150.936 94.358 L 150.936 92.574 L 150.936 92.574 Q 152.813 81.807 162.595 81.807 L 162.595 81.807 L 162.595 81.807 Q 166.01 81.807 170.224 84.484 L 170.224 84.484 L 170.224 84.484 Q 171.27 82.238 174.716 79.561 Z  M 154.074 93.005 L 154.074 93.005 L 154.074 93.928 L 154.074 93.928 Q 155.489 101.988 162.134 101.988 L 162.134 101.988 L 162.595 101.988 L 162.595 101.988 Q 171.116 100.511 171.116 93.466 L 171.116 93.466 L 171.116 93.466 Q 169.64 84.945 162.595 84.945 L 162.595 84.945 L 162.134 84.945 L 162.134 84.945 Q 154.074 86.206 154.074 93.005 Z  M 162.595 90.79 L 162.595 90.79 L 162.595 90.79 Q 164.656 91.651 164.841 92.574 L 164.841 92.574 L 164.841 94.358 L 164.841 94.358 Q 164.656 95.281 162.595 96.173 L 162.595 96.173 L 162.595 96.173 Q 159.919 96.173 159.919 93.005 L 159.919 93.005 L 159.919 93.005 Q 160.811 90.79 162.595 90.79 Z " fill="rgb(0,0,0)"/><path d=" M 363.645 -22.659 L 363.645 -22.659 L 364.084 -22.659 L 364.084 -22.659 Q 364.726 -22.659 365.402 -21.341 L 365.402 -21.341 L 365.402 -9.549 L 365.402 -9.549 Q 370.504 -9.549 375.032 -2.116 L 375.032 -2.116 L 375.032 -2.116 Q 379.086 -6.17 382.905 -9.11 L 382.905 -9.11 L 383.783 -9.11 L 383.783 -9.11 Q 384.391 -9.11 385.067 -7.792 L 385.067 -7.792 L 385.067 -7.792 Q 385.067 -7.218 375.91 1.398 L 375.91 1.398 L 384.628 9.677 L 384.628 10.555 L 384.628 10.555 Q 384.628 11.197 383.344 11.873 L 383.344 11.873 L 383.344 11.873 Q 380.134 9.879 375.032 4.879 L 375.032 4.879 L 374.593 4.879 L 374.593 4.879 Q 371.349 12.751 365.402 12.751 L 365.402 12.751 L 365.402 24.544 L 365.402 24.544 Q 365.402 25.186 364.084 25.861 L 364.084 25.861 L 363.645 25.861 L 363.645 25.861 Q 363.037 25.861 362.361 24.544 L 362.361 24.544 L 362.361 12.751 L 362.361 12.751 Q 355.097 12.751 352.731 2.682 L 352.731 2.682 L 352.731 0.52 L 352.731 0.52 Q 354.961 -9.549 362.361 -9.549 L 362.361 -9.549 L 362.361 -21.341 L 362.361 -21.341 Q 362.361 -21.983 363.645 -22.659 Z  M 355.806 0.081 L 355.806 0.081 L 355.806 3.122 L 355.806 3.122 Q 355.806 8.122 363.206 9.677 L 363.206 9.677 L 364.524 9.677 L 364.524 9.677 Q 371.957 8.393 371.957 2.243 L 371.957 2.243 L 371.957 0.081 L 371.957 0.081 Q 371.957 -4.785 364.084 -6.914 L 364.084 -6.914 L 364.084 -6.914 Q 355.806 -5.123 355.806 0.081 Z  M 363.206 -0.798 L 363.206 -0.798 L 364.524 -0.798 L 364.524 -0.798 Q 365.233 -0.798 366.281 0.959 L 366.281 0.959 L 366.281 2.243 L 366.281 2.243 Q 366.281 2.953 364.524 4 L 364.524 4 L 363.206 4 L 363.206 4 Q 362.53 4 361.483 2.243 L 361.483 2.243 L 361.483 0.959 L 361.483 0.959 Q 361.483 0.25 363.206 -0.798 Z " fill="rgb(0,0,0)"/><path d=" M 215.558 233.306 L 215.558 233.306 L 220.94 238.22 L 220.94 238.22 Q 225.825 236.435 228.516 236.435 L 228.516 236.435 L 228.955 236.435 L 228.955 236.435 Q 238.344 236.435 239.689 248.048 L 239.689 248.048 L 239.689 248.925 L 239.689 248.925 Q 239.689 256.384 229.861 259.66 L 229.861 259.66 L 229.861 259.66 Q 229.423 259.66 229.423 260.098 L 229.423 260.098 L 229.423 271.272 L 229.861 271.272 L 229.861 271.272 Q 230.944 266.797 237.905 266.797 L 237.905 266.797 L 239.689 266.797 L 239.689 266.797 Q 245.481 268.318 245.481 272.149 L 245.481 272.149 L 245.481 273.495 L 245.481 273.495 Q 244.75 275.279 242.351 275.279 L 242.351 275.279 L 231.207 275.279 L 231.207 275.279 Q 226.293 275.279 226.293 268.581 L 226.293 268.581 L 226.293 259.192 L 226.293 259.192 Q 218.805 259.192 216.465 248.048 L 216.465 248.048 L 216.465 248.048 Q 216.465 245.24 219.127 240.443 L 219.127 240.443 L 219.127 240.443 Q 217.986 240.443 213.335 235.09 L 213.335 235.09 L 213.335 234.651 L 213.335 234.651 Q 213.335 233.627 215.558 233.306 Z  M 219.595 248.048 L 219.595 248.048 L 219.595 248.048 Q 221.554 256.53 228.077 256.53 L 228.077 256.53 L 228.077 256.53 Q 236.56 255.038 236.56 248.486 L 236.56 248.486 L 236.56 246.702 L 236.56 246.702 Q 234.512 239.565 229.423 239.565 L 229.423 239.565 L 227.17 239.565 L 227.17 239.565 Q 221.437 239.565 219.595 248.048 Z  M 228.516 245.357 L 228.516 245.357 L 228.516 245.357 Q 230.739 245.971 230.739 248.486 L 230.739 248.486 L 230.739 248.486 Q 230.739 249.188 228.955 250.271 L 228.955 250.271 L 227.17 250.271 L 227.17 250.271 Q 226.527 250.271 225.825 248.925 L 225.825 248.925 L 225.825 247.141 L 225.825 247.141 Q 226.732 245.357 228.516 245.357 Z  M 233.43 271.711 L 233.43 271.711 L 233.43 272.149 L 233.869 272.149 L 233.869 272.149 Q 235.36 272.149 236.121 271.711 L 236.121 271.711 L 236.121 271.711 Q 238.519 272.149 240.128 272.149 L 240.128 272.149 L 241.006 272.149 L 241.006 272.149 Q 241.912 272.149 241.912 271.272 L 241.912 271.272 L 241.912 271.272 Q 240.216 269.926 237.905 269.926 L 237.905 269.926 L 237.905 269.926 Q 233.43 270.482 233.43 271.711 Z " fill="rgb(0,0,0)"/><path d=" M 258.875 174.894 L 258.875 174.894 L 258.875 174.894 Q 267.005 174.894 273.529 180.231 L 273.529 180.231 L 273.529 180.231 Q 273.529 179.663 277.087 176.673 L 277.087 176.673 L 277.977 176.673 L 277.977 176.673 Q 278.619 176.673 279.311 178.007 L 279.311 178.007 L 279.311 178.452 L 275.308 182.9 L 275.308 182.9 Q 280.201 189.127 280.201 196.664 L 280.201 196.664 L 280.201 196.664 Q 280.201 204.646 274.863 209.538 L 274.863 209.538 L 273.974 209.538 L 273.974 209.538 Q 273.356 209.538 272.664 208.204 L 272.664 208.204 L 272.664 208.204 Q 277.087 202.446 277.087 196.219 L 277.087 196.219 L 277.087 196.219 Q 274.072 178.007 260.209 178.007 L 260.209 178.007 L 260.209 185.569 L 266.881 189.547 L 266.881 189.547 Q 269.995 193.353 269.995 198.443 L 269.995 198.443 L 269.995 198.443 Q 269.995 206.697 258.875 209.094 L 258.875 209.094 L 258.875 209.094 Q 246.89 207.833 246.89 197.109 L 246.89 197.109 L 246.89 197.109 Q 248.941 186.458 257.12 186.458 L 257.12 186.458 L 257.12 178.007 L 257.12 178.007 Q 245.605 178.007 239.798 194.885 L 239.798 194.885 L 239.798 197.109 L 239.798 197.109 Q 239.798 201.532 243.356 209.538 L 243.356 209.538 L 242.022 210.428 L 241.132 210.428 L 241.132 210.428 Q 238.884 210.428 236.684 197.109 L 236.684 197.109 L 236.684 197.109 Q 236.684 190.882 241.577 183.79 L 241.577 183.79 L 241.577 183.345 L 241.577 183.345 Q 238.019 179.935 238.019 178.007 L 238.019 178.007 L 238.019 178.007 Q 239.452 177.118 240.243 177.118 L 240.243 177.118 L 240.243 177.118 Q 240.243 177.686 243.801 180.676 L 243.801 180.676 L 244.221 180.676 L 244.221 180.676 Q 250.547 174.894 258.875 174.894 Z  M 250.004 197.554 L 250.004 197.554 L 250.004 197.554 Q 251.289 205.98 258.455 205.98 L 258.455 205.98 L 258.455 205.98 Q 266.881 204.646 266.881 197.554 L 266.881 197.554 L 266.881 197.554 Q 265.547 189.102 258.455 189.102 L 258.455 189.102 L 258.455 189.102 Q 250.004 190.437 250.004 197.554 Z  M 258.455 194.885 L 258.455 194.885 L 258.455 194.885 Q 259.765 194.885 261.099 197.554 L 261.099 197.554 L 261.099 197.554 Q 261.099 198.888 258.455 200.222 L 258.455 200.222 L 258.455 200.222 Q 257.12 200.222 255.786 197.554 L 255.786 197.554 L 255.786 197.554 Q 255.786 196.219 258.455 194.885 Z " fill="rgb(0,0,0)"/><path d=" M 126.611 140.975 L 127.945 140.975 L 127.945 140.975 Q 128.844 140.975 128.844 142.309 L 128.844 142.309 L 128.844 142.309 Q 125.739 176.513 124.84 176.513 L 124.84 176.513 L 123.942 176.976 L 123.942 176.976 Q 121.954 175.724 114.628 169.406 L 114.628 169.406 L 114.628 169.406 Q 112.531 170.74 107.956 171.639 L 107.956 171.639 L 107.956 171.639 Q 96.41 169.406 96.41 160.528 L 96.41 160.528 L 96.41 159.194 L 96.41 159.194 Q 96.41 157.314 97.744 154.319 L 97.744 154.319 L 91.943 149.853 L 88.403 179.645 L 87.505 180.081 L 87.069 180.081 L 87.069 180.081 Q 86.415 180.081 85.734 178.747 L 85.734 178.747 L 85.734 178.747 Q 88.839 144.978 89.738 144.978 L 89.738 144.978 L 91.072 144.978 L 91.072 144.978 Q 93.714 146.857 99.514 152.086 L 99.514 152.086 L 99.514 152.086 Q 102.428 148.518 107.956 148.518 L 107.956 148.518 L 108.855 148.518 L 108.855 148.518 Q 117.542 148.518 119.503 160.092 L 119.503 160.092 L 119.503 160.092 Q 119.503 163.306 116.834 167.2 L 116.834 167.2 L 122.607 172.075 L 122.607 172.075 Q 125.739 142.854 126.611 140.975 L 126.611 140.975 Z  M 99.514 159.629 L 99.514 159.629 L 99.514 160.964 L 99.514 160.964 Q 99.514 166.683 107.956 168.534 L 107.956 168.534 L 107.956 168.534 Q 115.037 168.534 116.398 159.629 L 116.398 159.629 L 116.398 159.629 Q 116.398 153.175 107.956 151.187 L 107.956 151.187 L 107.956 151.187 Q 99.514 152.984 99.514 159.629 Z  M 108.392 157.423 L 108.392 157.423 L 108.392 157.423 Q 110.189 158.077 110.189 158.758 L 110.189 158.758 L 110.189 160.964 L 110.189 160.964 Q 110.189 161.617 108.855 162.298 L 108.855 162.298 L 107.058 162.298 L 107.058 162.298 Q 105.287 161.427 105.287 159.629 L 105.287 159.629 L 105.287 159.629 Q 105.914 157.423 108.392 157.423 Z " fill="rgb(0,0,0)"/><path d=" M 6.251 41.658 L 11.428 40.795 L 11.428 40.795 Q 24.163 40.795 30.828 53.321 L 30.828 53.321 L 30.828 53.321 Q 33 57.993 33 62.367 L 33 62.367 L 33 62.367 Q 33 77.244 16.159 83.075 L 16.159 83.075 L 16.159 83.075 Q 15.624 83.075 11.845 83.522 L 11.845 83.522 L 11.845 83.522 Q -3.479 83.522 -9.281 66.681 L -9.281 66.681 L -9.281 66.681 Q -9.281 64.896 -9.727 61.95 L -9.727 61.95 L -9.727 61.95 Q -9.727 47.698 6.251 41.658 L 6.251 41.658 Z  M -6.276 58.498 L -6.692 62.367 L -6.692 62.367 Q -6.692 74.863 7.53 80.07 L 7.53 80.07 L 10.119 80.487 L 10.119 73.167 L 10.119 73.167 Q 2.829 73.167 0.627 63.229 L 0.627 63.229 L 0.627 61.087 L 0.627 61.087 Q 2.829 51.149 10.565 51.149 L 10.565 51.149 L 12.708 51.149 L 12.708 51.149 Q 22.646 53.351 22.646 61.087 L 22.646 61.087 L 22.646 63.229 L 22.646 63.229 Q 20.444 73.167 13.154 73.167 L 13.154 73.167 L 13.154 80.487 L 13.154 80.487 Q 21.783 80.487 28.686 69.269 L 28.686 69.269 L 28.686 69.269 Q 29.965 64.003 29.965 61.95 L 29.965 61.95 L 29.965 61.95 Q 29.965 49.185 15.296 44.246 L 15.296 44.246 L 11.428 43.83 L 11.428 43.83 Q -1.217 43.83 -6.276 58.498 L -6.276 58.498 Z  M 3.216 61.95 L 3.216 61.95 L 3.216 61.95 Q 5.18 70.579 11.428 70.579 L 11.428 70.579 L 11.428 70.579 Q 19.611 68.793 19.611 63.676 L 19.611 63.676 L 19.611 60.641 L 19.611 60.641 Q 19.611 55.702 12.291 54.184 L 12.291 54.184 L 10.982 54.184 L 10.982 54.184 Q 3.216 55.91 3.216 61.95 Z  M 10.982 59.778 L 10.982 59.778 L 12.291 59.778 L 12.291 59.778 Q 12.946 59.778 14.017 61.504 L 14.017 61.504 L 14.017 62.813 L 14.017 62.813 Q 14.017 63.467 12.291 64.539 L 12.291 64.539 L 10.982 64.539 L 10.982 64.539 Q 10.327 64.539 9.256 62.813 L 9.256 62.813 L 9.256 61.504 L 9.256 61.504 Q 9.256 60.849 10.982 59.778 Z " fill="rgb(0,0,0)"/><path d=" M 318.516 339.275 L 318.516 339.275 L 318.97 339.275 L 325.385 345.236 L 325.385 345.236 Q 329.076 342.936 333.161 342.936 L 333.161 342.936 L 333.161 342.936 Q 342.662 342.936 344.599 354.828 L 344.599 354.828 L 344.599 354.828 Q 344.599 365.207 332.254 366.72 L 332.254 366.72 L 332.254 366.72 Q 328.38 366.508 324.477 363.512 L 324.477 363.512 L 324.477 381.819 L 324.477 381.819 Q 324.477 382.726 323.569 382.726 L 323.569 382.726 L 322.177 382.726 L 322.177 382.726 Q 321.27 382.726 321.27 381.819 L 321.27 381.819 L 321.27 362.15 L 321.27 362.15 Q 321.27 358.459 320.816 353.466 L 320.816 353.466 L 320.816 353.466 Q 321.724 350.077 323.116 347.505 L 323.116 347.505 L 323.116 347.505 Q 322.45 347.505 317.155 341.575 L 317.155 341.575 L 317.155 340.637 L 317.155 340.637 Q 317.155 340.001 318.516 339.275 Z  M 324.023 354.828 L 324.023 354.828 L 324.023 354.828 Q 325.385 363.512 332.707 363.512 L 332.707 363.512 L 332.707 363.512 Q 341.392 362.15 341.392 354.828 L 341.392 354.828 L 341.392 354.828 Q 340.03 346.144 332.707 346.144 L 332.707 346.144 L 332.707 346.144 Q 324.023 347.505 324.023 354.828 Z  M 332.707 352.074 L 332.707 352.074 L 332.707 352.074 Q 334.069 352.074 335.461 354.828 L 335.461 354.828 L 335.461 354.828 Q 335.461 356.19 332.707 357.581 L 332.707 357.581 L 332.707 357.581 Q 331.346 357.581 329.954 354.828 L 329.954 354.828 L 329.954 354.828 Q 329.954 353.466 332.707 352.074 Z " fill="rgb(0,0,0)"/><path d=" M 29.652 -10.857 L 29.652 -10.857 L 30.092 -10.857 L 30.092 -10.857 Q 40.764 -8.7 40.764 -0.186 L 40.764 -0.186 L 40.764 0.255 L 40.764 0.255 Q 40.764 3.688 38.536 8.235 L 38.536 8.235 L 44.754 14.011 L 44.754 14.011 Q 44.754 13.431 48.744 10.021 L 48.744 10.021 L 50.089 10.021 L 50.089 10.021 Q 50.971 10.16 50.971 10.903 L 50.971 10.903 L 50.971 11.784 L 46.981 16.238 L 50.971 20.669 L 50.971 21.133 L 50.971 21.133 Q 50.971 22.455 49.184 22.455 L 49.184 22.455 L 49.184 22.455 Q 48.465 22.455 35.869 10.021 L 35.869 10.021 L 35.869 10.021 Q 34.5 11.343 29.652 12.248 L 29.652 12.248 L 29.652 12.248 Q 17.658 10.323 17.658 0.696 L 17.658 0.696 L 17.658 0.696 Q 17.658 -9.465 29.652 -10.857 Z  M 20.767 0.696 L 20.767 0.696 L 20.767 0.696 Q 22.414 9.14 29.211 9.14 L 29.211 9.14 L 29.211 9.14 Q 37.655 7.539 37.655 1.136 L 37.655 1.136 L 37.655 0.255 L 37.655 0.255 Q 36.379 -7.749 29.652 -7.749 L 29.652 -7.749 L 28.77 -7.749 L 28.77 -7.749 Q 22.367 -7.749 20.767 0.696 Z  M 29.652 -1.972 L 29.652 -1.972 L 29.652 -1.972 Q 31.879 -1.253 31.879 0.696 L 31.879 0.696 L 31.879 0.696 Q 31.02 2.714 30.092 2.923 L 30.092 2.923 L 28.329 2.923 L 28.329 2.923 Q 27.68 2.923 26.984 1.577 L 26.984 1.577 L 26.984 -0.186 L 26.984 -0.186 Q 27.865 -1.972 29.652 -1.972 Z " fill="rgb(0,0,0)"/><path d=" M 29.126 263.188 L 29.126 263.188 L 29.126 263.188 Q 40.813 265.21 40.813 274.431 L 40.813 274.431 L 40.813 274.431 Q 40.37 278.059 38.21 282.213 L 38.21 282.213 L 38.21 282.213 Q 44.69 287.585 44.69 289.994 L 44.69 289.994 L 44.69 289.994 Q 43.277 290.853 42.53 290.853 L 42.53 290.853 L 42.53 290.853 Q 42.53 290.299 35.606 283.93 L 35.606 283.93 L 35.606 283.93 Q 32.643 285.674 30.428 285.674 L 30.428 285.674 L 29.57 285.674 L 29.57 285.674 Q 24.973 285.674 21.345 282.628 L 21.345 282.628 L 21.345 302.096 L 21.345 302.096 Q 21.345 302.955 20.486 302.955 L 20.486 302.955 L 19.628 302.955 L 19.628 302.955 Q 18.326 302.511 18.326 300.351 L 18.326 300.351 L 18.326 273.573 L 18.326 273.573 Q 18.326 265.68 29.126 263.188 Z  M 21.345 273.988 L 21.345 273.988 L 21.345 275.733 L 21.345 275.733 Q 23.311 282.628 28.268 282.628 L 28.268 282.628 L 29.985 282.628 L 29.985 282.628 Q 36.354 282.628 37.766 274.431 L 37.766 274.431 L 37.766 274.431 Q 37.766 267.84 29.126 266.207 L 29.126 266.207 L 29.126 266.207 Q 21.345 268.007 21.345 273.988 Z  M 28.711 272.271 L 28.711 272.271 L 30.428 272.271 L 30.428 272.271 Q 31.73 272.687 31.73 274.847 L 31.73 274.847 L 31.73 275.29 L 31.73 275.29 Q 31.73 275.954 29.985 277.007 L 29.985 277.007 L 29.985 277.007 Q 26.966 277.007 26.966 273.988 L 26.966 273.988 L 26.966 273.988 Q 26.966 273.324 28.711 272.271 Z " fill="rgb(0,0,0)"/><path d=" M 283.575 276.402 L 283.575 276.402 L 284.476 276.402 L 284.476 276.402 Q 285.81 276.835 285.81 279.107 L 285.81 279.107 L 285.81 281.811 L 285.81 281.811 Q 284.657 283.434 271.423 289.924 L 271.423 289.924 L 269.62 291.727 L 275.462 295.297 L 275.462 295.297 Q 279.248 291.258 283.142 291.258 L 283.142 291.258 L 285.378 291.258 L 285.378 291.258 Q 294.212 291.258 296.195 302.977 L 296.195 302.977 L 295.726 307.015 L 295.726 307.015 Q 302.469 309.972 302.469 312.857 L 302.469 312.857 L 302.469 312.857 Q 299.224 316.571 285.81 324.576 L 285.81 324.576 L 285.81 324.576 Q 285.81 328.182 284.909 328.182 L 284.909 328.182 L 284.008 328.182 L 284.008 328.182 Q 282.673 327.749 282.673 325.477 L 282.673 325.477 L 282.673 324.576 L 282.673 324.576 Q 282.673 321.439 294.825 315.561 L 294.825 315.561 L 298.431 312.424 L 298.431 312.424 Q 295.871 309.72 293.491 309.72 L 293.491 309.72 L 293.491 309.72 Q 293.491 312.641 284.476 314.66 L 284.476 314.66 L 284.476 314.66 Q 274.452 314.66 272.758 302.508 L 272.758 302.508 L 272.758 302.508 Q 272.758 301.354 273.659 298.001 L 273.659 298.001 L 273.659 298.001 Q 267.493 294.539 266.015 292.16 L 266.015 292.16 L 266.015 292.16 Q 266.015 287.977 282.673 280.909 L 282.673 280.909 L 282.673 277.304 L 282.673 277.304 Q 282.818 276.402 283.575 276.402 Z  M 275.931 302.508 L 275.931 302.508 L 275.931 302.977 L 275.931 302.977 Q 277.409 311.523 284.476 311.523 L 284.476 311.523 L 284.476 311.523 Q 293.022 309.864 293.022 302.977 L 293.022 302.977 L 293.022 302.977 Q 291.616 294.395 285.81 294.395 L 285.81 294.395 L 283.142 294.395 L 283.142 294.395 Q 277.481 294.395 275.931 302.508 Z  M 284.909 300.273 L 284.909 300.273 L 284.909 300.273 Q 286.712 300.958 286.712 301.607 L 286.712 301.607 L 286.712 303.878 L 286.712 303.878 Q 286.712 304.527 285.378 305.213 L 285.378 305.213 L 283.575 305.213 L 283.575 305.213 Q 282.673 305.213 281.772 302.508 L 281.772 302.508 L 281.772 302.508 Q 282.385 300.273 284.909 300.273 Z " fill="rgb(0,0,0)"/><path d=" M 104.051 -17.744 L 104.051 -17.744 L 132.464 -17.744 L 132.464 -17.744 Q 133.399 -17.61 133.399 -16.835 L 133.399 -16.835 L 133.399 -15.445 L 133.399 -15.445 Q 133.399 -14.536 132.464 -14.536 L 132.464 -14.536 L 119.634 -14.536 L 119.634 -2.615 L 119.634 -2.615 Q 129.711 0.004 129.711 7.461 L 129.711 7.461 L 129.711 11.123 L 129.711 11.123 Q 129.711 18.099 119.18 20.745 L 119.18 20.745 L 116.881 20.745 L 116.881 20.745 Q 106.35 18.42 106.35 10.214 L 106.35 10.214 L 106.35 7.915 L 106.35 7.915 Q 108.836 -2.615 116.427 -2.615 L 116.427 -2.615 L 116.427 -14.536 L 104.051 -14.536 L 104.051 -14.536 Q 103.41 -14.536 102.688 -15.899 L 102.688 -15.899 L 102.688 -16.381 L 102.688 -16.381 Q 102.688 -17.022 104.051 -17.744 Z  M 109.557 8.37 L 109.557 8.37 L 109.557 9.76 L 109.557 9.76 Q 110.947 17.538 117.362 17.538 L 117.362 17.538 L 119.634 17.538 L 119.634 17.538 Q 124.712 17.538 126.984 9.279 L 126.984 9.279 L 126.984 9.279 Q 125.033 0.138 118.271 0.138 L 118.271 0.138 L 118.271 0.138 Q 109.557 1.634 109.557 8.37 Z  M 117.362 6.552 L 117.362 6.552 L 118.725 6.552 L 118.725 6.552 Q 119.447 6.552 120.569 8.37 L 120.569 8.37 L 120.569 9.76 L 120.569 9.76 Q 120.569 10.455 118.725 11.577 L 118.725 11.577 L 117.362 11.577 L 117.362 11.577 Q 116.64 11.577 115.518 9.76 L 115.518 9.76 L 115.518 8.37 L 115.518 8.37 Q 115.518 7.648 117.362 6.552 Z " fill="rgb(0,0,0)"/><path d=" M 185.685 15.105 L 185.685 15.105 L 187.865 15.105 L 187.865 15.105 Q 196.256 15.105 198.342 26.458 L 198.342 26.458 L 198.342 26.458 Q 197.82 30.985 195.284 33.877 L 195.284 33.877 L 201.399 39.542 L 201.399 39.542 Q 205.334 35.323 207.064 25.581 L 207.064 25.581 L 207.064 25.581 Q 207.206 24.704 207.941 24.704 L 207.941 24.704 L 208.391 24.704 L 208.391 24.704 Q 209.031 24.704 209.695 26.458 L 209.695 26.458 L 209.695 26.458 Q 209.695 40.846 193.98 47.838 L 193.98 47.838 L 193.98 47.838 Q 190.543 48.715 186.988 49.141 L 186.988 49.141 L 186.988 49.141 Q 171.25 49.141 165.182 32.55 L 165.182 32.55 L 165.182 32.55 Q 164.305 30.843 164.305 27.762 L 164.305 27.762 L 164.305 26.008 L 164.305 26.008 Q 164.305 25.392 165.608 24.704 L 165.608 24.704 L 166.059 24.704 L 166.059 24.704 Q 167.197 24.704 168.239 33 L 168.239 33 L 171.297 38.665 L 171.297 38.665 Q 171.913 38.665 177.389 32.55 L 177.389 32.55 L 177.389 32.55 Q 175.658 29.563 175.658 27.311 L 175.658 27.311 L 175.658 25.131 L 175.658 25.131 Q 178.005 15.105 185.685 15.105 Z  M 178.716 25.131 L 178.716 25.131 L 178.716 26.885 L 178.716 26.885 Q 180.328 34.73 186.561 34.73 L 186.561 34.73 L 186.561 34.73 Q 193.672 34.73 195.284 26.008 L 195.284 26.008 L 195.284 26.008 Q 193.483 18.162 187.438 18.162 L 187.438 18.162 L 186.135 18.162 L 186.135 18.162 Q 178.716 19.703 178.716 25.131 Z  M 186.135 23.827 L 186.135 23.827 L 187.438 23.827 L 187.438 23.827 Q 188.126 23.827 189.192 25.581 L 189.192 25.581 L 189.192 26.885 L 189.192 26.885 Q 189.192 27.572 187.438 28.639 L 187.438 28.639 L 186.135 28.639 L 186.135 28.639 Q 185.447 28.639 184.381 26.885 L 184.381 26.885 L 184.381 26.885 Q 184.381 24.538 186.135 23.827 Z  M 179.143 35.181 L 179.143 35.181 L 173.904 40.846 L 173.904 40.846 Q 180.233 46.084 185.258 46.084 L 185.258 46.084 L 185.258 37.361 L 185.258 37.361 Q 184.002 37.361 179.143 35.181 Z  M 188.315 37.361 L 188.315 37.361 L 188.315 45.657 L 189.619 45.657 L 189.619 45.657 Q 192.629 45.657 198.792 42.149 L 198.792 42.149 L 198.792 41.723 L 198.792 41.723 Q 193.933 36.058 192.677 36.058 L 192.677 36.058 L 192.677 36.058 Q 190.425 37.361 188.315 37.361 Z " fill="rgb(0,0,0)"/><path d=" M 31.299 188.901 L 31.299 188.901 L 32.196 190.246 L 32.196 191.142 L 32.196 191.142 Q 32.196 191.783 27.232 196.106 L 27.232 196.106 L 27.232 196.106 Q 27.232 196.458 27.681 198.828 L 27.681 198.828 L 27.681 198.828 Q 27.681 203.663 19.13 213.238 L 19.13 213.238 L 19.13 213.238 Q 24.094 217.626 24.094 223.614 L 24.094 223.614 L 24.094 223.614 Q 24.094 233.189 11.925 234.886 L 11.925 234.886 L 11.925 234.886 Q 4.367 234.886 1.101 225.856 L 1.101 225.856 L 1.101 225.856 Q 1.101 225.536 0.653 223.166 L 0.653 223.166 L 0.653 223.166 Q 0.653 217.946 6.033 212.79 L 6.033 212.79 L 6.033 212.79 Q -1.557 204.112 -2.518 197.931 L -2.518 197.931 L -2.518 197.931 Q -2.518 191.975 12.373 190.246 L 12.373 190.246 L 12.373 190.246 Q 16.985 190.246 25.439 193.864 L 25.439 193.864 L 25.439 193.864 Q 29.506 188.901 31.299 188.901 Z  M 0.653 197.931 L 0.653 197.931 L 0.653 197.931 Q 1.101 201.966 9.203 211.894 L 9.203 211.894 L 11.445 211.445 L 12.822 211.445 L 15.96 211.894 L 15.96 211.894 Q 24.542 202.735 24.542 198.38 L 24.542 198.38 L 24.542 198.38 Q 24.542 195.209 12.373 193.416 L 12.373 193.416 L 12.373 193.416 Q 0.653 195.017 0.653 197.931 Z  M 3.791 223.166 L 3.791 223.166 L 3.791 223.166 Q 3.791 230.819 13.27 231.716 L 13.27 231.716 L 13.27 231.716 Q 20.924 229.378 20.924 224.062 L 20.924 224.062 L 20.924 222.717 L 20.924 222.717 Q 19.643 214.583 12.822 214.583 L 12.822 214.583 L 11.925 214.583 L 11.925 214.583 Q 5.296 214.583 3.791 223.166 Z  M 12.822 220.444 L 12.822 220.444 L 12.822 220.444 Q 15.063 221.18 15.063 223.166 L 15.063 223.166 L 15.063 223.166 Q 14.199 225.215 13.27 225.407 L 13.27 225.407 L 11.445 225.407 L 11.445 225.407 Q 10.804 225.407 10.1 224.062 L 10.1 224.062 L 10.1 222.269 L 10.1 222.269 Q 10.996 220.444 12.822 220.444 Z " fill="rgb(0,0,0)"/><path d=" M 338.371 193.126 L 338.371 193.126 L 339.261 193.126 L 339.261 193.126 Q 340.151 193.261 340.151 194.016 L 340.151 194.016 L 340.151 209.152 L 340.151 209.152 Q 344.145 209.152 348.165 213.604 L 348.165 213.604 L 348.165 213.604 Q 354.532 213.604 355.719 202.92 L 355.719 202.92 L 355.719 202.92 Q 355.719 200.707 356.61 200.707 L 356.61 200.707 L 357.527 200.707 L 357.527 200.707 Q 357.851 200.707 358.849 202.029 L 358.849 202.029 L 358.849 202.029 Q 357.122 216.734 349.487 216.734 L 349.487 216.734 L 349.487 216.734 Q 350.377 219 350.377 220.295 L 350.377 220.295 L 350.377 220.295 Q 348.327 231.87 339.693 231.87 L 339.693 231.87 L 337.48 231.87 L 337.48 231.87 Q 329.467 231.87 327.228 221.185 L 327.228 221.185 L 327.228 219.836 L 327.686 216.734 L 327.686 216.734 Q 318.324 214.467 318.324 201.598 L 318.324 201.598 L 319.673 200.707 L 320.105 200.707 L 320.105 200.707 Q 321.265 200.707 322.776 209.611 L 322.776 209.611 L 322.776 209.611 Q 325.744 213.604 328.118 213.604 L 328.118 213.604 L 329.008 213.604 L 329.008 213.604 Q 333.703 209.152 337.022 209.152 L 337.022 209.152 L 337.022 194.475 L 337.022 194.475 Q 337.022 193.827 338.371 193.126 Z  M 330.358 219.405 L 330.358 219.405 L 330.358 221.617 L 330.358 221.617 Q 330.358 226.797 338.371 229.199 L 338.371 229.199 L 338.371 229.199 Q 345.79 229.199 347.274 219.836 L 347.274 219.836 L 347.274 219.836 Q 347.274 213.928 338.802 211.823 L 338.802 211.823 L 338.802 211.823 Q 330.358 213.739 330.358 219.405 Z  M 337.912 218.056 L 337.912 218.056 L 338.371 218.056 L 338.371 218.056 Q 341.042 218.353 341.042 219.405 L 341.042 219.405 L 341.042 221.185 L 341.042 221.185 Q 341.042 221.887 339.261 222.966 L 339.261 222.966 L 339.261 222.966 Q 336.131 222.966 336.131 220.295 L 336.131 220.295 L 336.131 220.295 Q 336.995 218.272 337.912 218.056 Z " fill="rgb(0,0,0)"/><path d=" M 245.557 -10.144 L 245.557 -10.144 L 246.879 -10.144 L 254.813 -2.651 L 254.813 -2.651 Q 258.2 -4.855 261.842 -4.855 L 261.842 -4.855 L 261.842 -4.855 Q 264.649 -4.855 268.453 -2.651 L 268.453 -2.651 L 268.453 -2.651 Q 268.453 -3.207 275.506 -9.703 L 275.506 -9.703 L 276.828 -9.703 L 276.828 -9.703 Q 277.709 -9.564 277.709 -8.821 L 277.709 -8.821 L 277.709 -7.94 L 270.657 -0.447 L 270.657 -0.447 Q 272.861 2.198 272.861 6.582 L 272.861 6.582 L 272.861 7.904 L 272.861 7.904 Q 272.861 10.595 270.657 13.634 L 270.657 13.634 L 270.657 13.634 Q 271.214 13.634 277.709 20.687 L 277.709 20.687 L 277.709 21.127 L 277.709 21.127 Q 277.709 21.754 276.387 22.45 L 276.387 22.45 L 275.506 22.45 L 268.453 15.838 L 268.453 15.838 Q 264.765 18.042 261.424 18.042 L 261.424 18.042 L 261.424 18.042 Q 259.476 18.042 253.931 15.838 L 253.931 15.838 L 253.931 15.838 Q 253.931 16.395 246.438 23.331 L 246.438 23.331 L 245.557 23.331 L 245.557 23.331 Q 244.675 23.331 244.675 22.45 L 244.675 22.45 L 244.675 21.127 L 252.168 13.194 L 252.168 13.194 Q 250.405 10.178 250.405 7.904 L 250.405 7.904 L 250.405 5.283 L 250.405 5.283 Q 250.405 4.03 252.168 -0.888 L 252.168 -0.888 L 252.168 -0.888 Q 251.612 -0.888 244.675 -8.381 L 244.675 -8.381 L 244.675 -9.262 L 244.675 -9.262 Q 244.815 -10.144 245.557 -10.144 Z  M 253.05 7.023 L 253.05 7.023 L 253.05 7.023 Q 255.323 14.957 260.984 14.957 L 260.984 14.957 L 261.424 14.957 L 261.424 14.957 Q 269.776 13.565 269.776 7.904 L 269.776 7.904 L 269.776 5.283 L 269.776 5.283 Q 269.776 -0.122 261.842 -1.769 L 261.842 -1.769 L 261.424 -1.769 L 261.424 -1.769 Q 254.535 -1.769 253.05 7.023 Z  M 260.543 4.402 L 260.543 4.402 L 262.724 4.402 L 262.724 4.402 Q 264.046 4.842 264.046 7.023 L 264.046 7.023 L 264.046 7.023 Q 263.396 8.786 262.724 8.786 L 262.724 8.786 L 260.543 8.786 L 260.543 8.786 Q 259.893 8.786 259.221 7.464 L 259.221 7.464 L 259.221 7.023 L 259.221 7.023 Q 259.476 4.402 260.543 4.402 Z " fill="rgb(0,0,0)"/><path d=" M 363.645 377.3 L 363.645 377.3 L 364.084 377.3 L 364.084 377.3 Q 364.726 377.3 365.402 378.618 L 365.402 378.618 L 365.402 390.41 L 365.402 390.41 Q 370.504 390.41 375.032 397.843 L 375.032 397.843 L 375.032 397.843 Q 379.086 393.789 382.905 390.849 L 382.905 390.849 L 383.783 390.849 L 383.783 390.849 Q 384.391 390.849 385.067 392.167 L 385.067 392.167 L 385.067 392.167 Q 385.067 392.741 375.91 401.358 L 375.91 401.358 L 384.628 409.636 L 384.628 410.514 L 384.628 410.514 Q 384.628 411.156 383.344 411.832 L 383.344 411.832 L 383.344 411.832 Q 380.134 409.838 375.032 404.838 L 375.032 404.838 L 374.593 404.838 L 374.593 404.838 Q 371.349 412.71 365.402 412.71 L 365.402 412.71 L 365.402 424.503 L 365.402 424.503 Q 365.402 425.145 364.084 425.82 L 364.084 425.82 L 363.645 425.82 L 363.645 425.82 Q 363.037 425.82 362.361 424.503 L 362.361 424.503 L 362.361 412.71 L 362.361 412.71 Q 355.097 412.71 352.731 402.641 L 352.731 402.641 L 352.731 400.479 L 352.731 400.479 Q 354.961 390.41 362.361 390.41 L 362.361 390.41 L 362.361 378.618 L 362.361 378.618 Q 362.361 377.976 363.645 377.3 Z  M 355.806 400.04 L 355.806 400.04 L 355.806 403.081 L 355.806 403.081 Q 355.806 408.081 363.206 409.636 L 363.206 409.636 L 364.524 409.636 L 364.524 409.636 Q 371.957 408.352 371.957 402.202 L 371.957 402.202 L 371.957 400.04 L 371.957 400.04 Q 371.957 395.174 364.084 393.045 L 364.084 393.045 L 364.084 393.045 Q 355.806 394.836 355.806 400.04 Z  M 363.206 399.161 L 363.206 399.161 L 364.524 399.161 L 364.524 399.161 Q 365.233 399.161 366.281 400.918 L 366.281 400.918 L 366.281 402.202 L 366.281 402.202 Q 366.281 402.912 364.524 403.959 L 364.524 403.959 L 363.206 403.959 L 363.206 403.959 Q 362.53 403.959 361.483 402.202 L 361.483 402.202 L 361.483 400.918 L 361.483 400.918 Q 361.483 400.209 363.206 399.161 Z " fill="rgb(0,0,0)"/><path d=" M 29.652 389.102 L 29.652 389.102 L 30.092 389.102 L 30.092 389.102 Q 40.764 391.259 40.764 399.773 L 40.764 399.773 L 40.764 400.214 L 40.764 400.214 Q 40.764 403.647 38.536 408.194 L 38.536 408.194 L 44.754 413.97 L 44.754 413.97 Q 44.754 413.39 48.744 409.98 L 48.744 409.98 L 50.089 409.98 L 50.089 409.98 Q 50.971 410.119 50.971 410.862 L 50.971 410.862 L 50.971 411.743 L 46.981 416.197 L 50.971 420.628 L 50.971 421.092 L 50.971 421.092 Q 50.971 422.415 49.184 422.415 L 49.184 422.415 L 49.184 422.415 Q 48.465 422.415 35.869 409.98 L 35.869 409.98 L 35.869 409.98 Q 34.5 411.303 29.652 412.207 L 29.652 412.207 L 29.652 412.207 Q 17.658 410.282 17.658 400.655 L 17.658 400.655 L 17.658 400.655 Q 17.658 390.494 29.652 389.102 Z  M 20.767 400.655 L 20.767 400.655 L 20.767 400.655 Q 22.414 409.099 29.211 409.099 L 29.211 409.099 L 29.211 409.099 Q 37.655 407.498 37.655 401.095 L 37.655 401.095 L 37.655 400.214 L 37.655 400.214 Q 36.379 392.211 29.652 392.211 L 29.652 392.211 L 28.77 392.211 L 28.77 392.211 Q 22.367 392.211 20.767 400.655 Z  M 29.652 397.987 L 29.652 397.987 L 29.652 397.987 Q 31.879 398.706 31.879 400.655 L 31.879 400.655 L 31.879 400.655 Q 31.02 402.673 30.092 402.882 L 30.092 402.882 L 28.329 402.882 L 28.329 402.882 Q 27.68 402.882 26.984 401.536 L 26.984 401.536 L 26.984 399.773 L 26.984 399.773 Q 27.865 397.987 29.652 397.987 Z " fill="rgb(0,0,0)"/><path d=" M 104.051 382.215 L 104.051 382.215 L 132.464 382.215 L 132.464 382.215 Q 133.399 382.349 133.399 383.124 L 133.399 383.124 L 133.399 384.514 L 133.399 384.514 Q 133.399 385.423 132.464 385.423 L 132.464 385.423 L 119.634 385.423 L 119.634 397.344 L 119.634 397.344 Q 129.711 399.963 129.711 407.42 L 129.711 407.42 L 129.711 411.082 L 129.711 411.082 Q 129.711 418.058 119.18 420.704 L 119.18 420.704 L 116.881 420.704 L 116.881 420.704 Q 106.35 418.379 106.35 410.173 L 106.35 410.173 L 106.35 407.875 L 106.35 407.875 Q 108.836 397.344 116.427 397.344 L 116.427 397.344 L 116.427 385.423 L 104.051 385.423 L 104.051 385.423 Q 103.41 385.423 102.688 384.06 L 102.688 384.06 L 102.688 383.579 L 102.688 383.579 Q 102.688 382.937 104.051 382.215 Z  M 109.557 408.329 L 109.557 408.329 L 109.557 409.719 L 109.557 409.719 Q 110.947 417.497 117.362 417.497 L 117.362 417.497 L 119.634 417.497 L 119.634 417.497 Q 124.712 417.497 126.984 409.238 L 126.984 409.238 L 126.984 409.238 Q 125.033 400.097 118.271 400.097 L 118.271 400.097 L 118.271 400.097 Q 109.557 401.593 109.557 408.329 Z  M 117.362 406.511 L 117.362 406.511 L 118.725 406.511 L 118.725 406.511 Q 119.447 406.511 120.569 408.329 L 120.569 408.329 L 120.569 409.719 L 120.569 409.719 Q 120.569 410.414 118.725 411.536 L 118.725 411.536 L 117.362 411.536 L 117.362 411.536 Q 116.64 411.536 115.518 409.719 L 115.518 409.719 L 115.518 408.329 L 115.518 408.329 Q 115.518 407.607 117.362 406.511 Z " fill="rgb(0,0,0)"/><path d=" M 245.557 389.815 L 245.557 389.815 L 246.879 389.815 L 254.813 397.308 L 254.813 397.308 Q 258.2 395.105 261.842 395.105 L 261.842 395.105 L 261.842 395.105 Q 264.649 395.105 268.453 397.308 L 268.453 397.308 L 268.453 397.308 Q 268.453 396.752 275.506 390.256 L 275.506 390.256 L 276.828 390.256 L 276.828 390.256 Q 277.709 390.395 277.709 391.138 L 277.709 391.138 L 277.709 392.019 L 270.657 399.512 L 270.657 399.512 Q 272.861 402.157 272.861 406.541 L 272.861 406.541 L 272.861 407.864 L 272.861 407.864 Q 272.861 410.555 270.657 413.593 L 270.657 413.593 L 270.657 413.593 Q 271.214 413.593 277.709 420.646 L 277.709 420.646 L 277.709 421.086 L 277.709 421.086 Q 277.709 421.713 276.387 422.409 L 276.387 422.409 L 275.506 422.409 L 268.453 415.797 L 268.453 415.797 Q 264.765 418.001 261.424 418.001 L 261.424 418.001 L 261.424 418.001 Q 259.476 418.001 253.931 415.797 L 253.931 415.797 L 253.931 415.797 Q 253.931 416.354 246.438 423.29 L 246.438 423.29 L 245.557 423.29 L 245.557 423.29 Q 244.675 423.29 244.675 422.409 L 244.675 422.409 L 244.675 421.086 L 252.168 413.153 L 252.168 413.153 Q 250.405 410.137 250.405 407.864 L 250.405 407.864 L 250.405 405.242 L 250.405 405.242 Q 250.405 403.989 252.168 399.071 L 252.168 399.071 L 252.168 399.071 Q 251.612 399.071 244.675 391.578 L 244.675 391.578 L 244.675 390.697 L 244.675 390.697 Q 244.815 389.815 245.557 389.815 Z  M 253.05 406.982 L 253.05 406.982 L 253.05 406.982 Q 255.323 414.916 260.984 414.916 L 260.984 414.916 L 261.424 414.916 L 261.424 414.916 Q 269.776 413.524 269.776 407.864 L 269.776 407.864 L 269.776 405.242 L 269.776 405.242 Q 269.776 399.837 261.842 398.19 L 261.842 398.19 L 261.424 398.19 L 261.424 398.19 Q 254.535 398.19 253.05 406.982 Z  M 260.543 404.361 L 260.543 404.361 L 262.724 404.361 L 262.724 404.361 Q 264.046 404.801 264.046 406.982 L 264.046 406.982 L 264.046 406.982 Q 263.396 408.745 262.724 408.745 L 262.724 408.745 L 260.543 408.745 L 260.543 408.745 Q 259.893 408.745 259.221 407.423 L 259.221 407.423 L 259.221 406.982 L 259.221 406.982 Q 259.476 404.361 260.543 404.361 Z " fill="rgb(0,0,0)"/><path d=" M -13.43 327.153 L -13.43 327.153 L -5.955 333.316 L -5.955 333.316 Q -2.935 331.547 -0.677 331.547 L -0.677 331.547 L 1.093 331.547 L 1.093 331.547 Q 6.829 332.889 7.256 332.889 L 7.256 332.889 L 7.256 332.889 Q 7.256 332.279 12.534 327.58 L 12.534 327.58 L 12.992 327.58 L 12.992 327.58 Q 13.602 327.58 14.304 328.923 L 14.304 328.923 L 14.304 329.35 L 9.026 335.086 L 9.026 335.086 Q 11.65 338.778 11.65 342.988 L 11.65 342.988 L 11.65 343.873 L 11.65 343.873 Q 9.575 354.002 1.52 354.002 L 1.52 354.002 L 1.52 363.705 L 1.52 363.705 Q 1.52 367.763 7.683 368.526 L 7.683 368.526 L 7.683 369.868 L 7.683 369.868 Q 7.683 370.478 6.371 371.18 L 6.371 371.18 L 5.944 371.18 L 5.944 371.18 Q 1.978 371.18 -0.219 367.671 L -0.219 367.671 L -0.219 367.671 Q -4.826 370.753 -6.382 370.753 L -6.382 370.753 L -7.267 370.753 L -7.267 370.753 Q -8.152 370.753 -8.152 369.868 L -8.152 369.868 L -8.152 368.983 L -8.152 368.983 Q -1.562 364.864 -1.562 364.132 L -1.562 364.132 L -1.562 354.002 L -1.562 354.002 Q -9.098 354.002 -11.233 342.561 L -11.233 342.561 L -11.233 342.561 Q -10.684 338.625 -8.609 335.513 L -8.609 335.513 L -8.609 335.513 Q -9.128 335.513 -15.2 328.923 L -15.2 328.923 L -15.2 328.923 Q -15.2 328.221 -13.43 327.153 Z  M -8.152 342.988 L -8.152 342.988 L -8.152 342.988 Q -6.535 351.379 0.208 351.379 L 0.208 351.379 L 0.208 351.379 Q 8.568 349.914 8.568 343.446 L 8.568 343.446 L 8.568 341.676 L 8.568 341.676 Q 6.585 334.628 1.52 334.628 L 1.52 334.628 L -0.219 334.628 L -0.219 334.628 Q -6.718 334.628 -8.152 342.988 Z  M 0.635 340.364 L 0.635 340.364 L 0.635 340.364 Q 2.862 340.974 2.862 343.446 L 2.862 343.446 L 2.862 343.446 Q 2.862 344.117 1.093 345.215 L 1.093 345.215 L -0.677 345.215 L -0.677 345.215 Q -1.989 344.758 -1.989 342.561 L -1.989 342.561 L -1.989 342.134 L -1.989 342.134 Q -1.104 340.364 0.635 340.364 Z " fill="rgb(0,0,0)"/><path d=" M 406.251 41.658 L 411.428 40.795 L 411.428 40.795 Q 424.163 40.795 430.828 53.321 L 430.828 53.321 L 430.828 53.321 Q 433 57.993 433 62.367 L 433 62.367 L 433 62.367 Q 433 77.244 416.159 83.075 L 416.159 83.075 L 416.159 83.075 Q 415.623 83.075 411.845 83.522 L 411.845 83.522 L 411.845 83.522 Q 396.521 83.522 390.719 66.681 L 390.719 66.681 L 390.719 66.681 Q 390.719 64.896 390.273 61.95 L 390.273 61.95 L 390.273 61.95 Q 390.273 47.698 406.251 41.658 L 406.251 41.658 Z  M 393.724 58.498 L 393.308 62.367 L 393.308 62.367 Q 393.308 74.863 407.53 80.07 L 407.53 80.07 L 410.119 80.487 L 410.119 73.167 L 410.119 73.167 Q 402.829 73.167 400.627 63.229 L 400.627 63.229 L 400.627 61.087 L 400.627 61.087 Q 402.829 51.149 410.565 51.149 L 410.565 51.149 L 412.707 51.149 L 412.707 51.149 Q 422.645 53.351 422.645 61.087 L 422.645 61.087 L 422.645 63.229 L 422.645 63.229 Q 420.443 73.167 413.154 73.167 L 413.154 73.167 L 413.154 80.487 L 413.154 80.487 Q 421.782 80.487 428.685 69.269 L 428.685 69.269 L 428.685 69.269 Q 429.965 64.003 429.965 61.95 L 429.965 61.95 L 429.965 61.95 Q 429.965 49.185 415.296 44.246 L 415.296 44.246 L 411.428 43.83 L 411.428 43.83 Q 398.782 43.83 393.724 58.498 L 393.724 58.498 Z  M 403.216 61.95 L 403.216 61.95 L 403.216 61.95 Q 405.18 70.579 411.428 70.579 L 411.428 70.579 L 411.428 70.579 Q 419.61 68.793 419.61 63.676 L 419.61 63.676 L 419.61 60.641 L 419.61 60.641 Q 419.61 55.702 412.291 54.184 L 412.291 54.184 L 410.982 54.184 L 410.982 54.184 Q 403.216 55.91 403.216 61.95 Z  M 410.982 59.778 L 410.982 59.778 L 412.291 59.778 L 412.291 59.778 Q 412.945 59.778 414.017 61.504 L 414.017 61.504 L 414.017 62.813 L 414.017 62.813 Q 414.017 63.467 412.291 64.539 L 412.291 64.539 L 410.982 64.539 L 410.982 64.539 Q 410.327 64.539 409.256 62.813 L 409.256 62.813 L 409.256 61.504 L 409.256 61.504 Q 409.256 60.849 410.982 59.778 Z " fill="rgb(0,0,0)"/><path d=" M 431.299 188.901 L 431.299 188.901 L 432.196 190.246 L 432.196 191.142 L 432.196 191.142 Q 432.196 191.783 427.232 196.106 L 427.232 196.106 L 427.232 196.106 Q 427.232 196.458 427.68 198.828 L 427.68 198.828 L 427.68 198.828 Q 427.68 203.663 419.13 213.238 L 419.13 213.238 L 419.13 213.238 Q 424.094 217.626 424.094 223.614 L 424.094 223.614 L 424.094 223.614 Q 424.094 233.189 411.925 234.886 L 411.925 234.886 L 411.925 234.886 Q 404.367 234.886 401.101 225.856 L 401.101 225.856 L 401.101 225.856 Q 401.101 225.536 400.653 223.166 L 400.653 223.166 L 400.653 223.166 Q 400.653 217.946 406.033 212.79 L 406.033 212.79 L 406.033 212.79 Q 398.443 204.112 397.482 197.931 L 397.482 197.931 L 397.482 197.931 Q 397.482 191.975 412.373 190.246 L 412.373 190.246 L 412.373 190.246 Q 416.985 190.246 425.439 193.864 L 425.439 193.864 L 425.439 193.864 Q 429.506 188.901 431.299 188.901 Z  M 400.653 197.931 L 400.653 197.931 L 400.653 197.931 Q 401.101 201.966 409.203 211.894 L 409.203 211.894 L 411.444 211.445 L 412.821 211.445 L 415.96 211.894 L 415.96 211.894 Q 424.542 202.735 424.542 198.38 L 424.542 198.38 L 424.542 198.38 Q 424.542 195.209 412.373 193.416 L 412.373 193.416 L 412.373 193.416 Q 400.653 195.017 400.653 197.931 Z  M 403.791 223.166 L 403.791 223.166 L 403.791 223.166 Q 403.791 230.819 413.27 231.716 L 413.27 231.716 L 413.27 231.716 Q 420.923 229.378 420.923 224.062 L 420.923 224.062 L 420.923 222.717 L 420.923 222.717 Q 419.643 214.583 412.821 214.583 L 412.821 214.583 L 411.925 214.583 L 411.925 214.583 Q 405.296 214.583 403.791 223.166 Z  M 412.821 220.444 L 412.821 220.444 L 412.821 220.444 Q 415.063 221.18 415.063 223.166 L 415.063 223.166 L 415.063 223.166 Q 414.198 225.215 413.27 225.407 L 413.27 225.407 L 411.444 225.407 L 411.444 225.407 Q 410.804 225.407 410.099 224.062 L 410.099 224.062 L 410.099 222.269 L 410.099 222.269 Q 410.996 220.444 412.821 220.444 Z " fill="rgb(0,0,0)"/><path d=" M 386.57 327.153 L 386.57 327.153 L 394.045 333.316 L 394.045 333.316 Q 397.065 331.547 399.323 331.547 L 399.323 331.547 L 401.093 331.547 L 401.093 331.547 Q 406.829 332.889 407.256 332.889 L 407.256 332.889 L 407.256 332.889 Q 407.256 332.279 412.534 327.58 L 412.534 327.58 L 412.992 327.58 L 412.992 327.58 Q 413.602 327.58 414.304 328.923 L 414.304 328.923 L 414.304 329.35 L 409.025 335.086 L 409.025 335.086 Q 411.649 338.778 411.649 342.988 L 411.649 342.988 L 411.649 343.873 L 411.649 343.873 Q 409.575 354.002 401.52 354.002 L 401.52 354.002 L 401.52 363.705 L 401.52 363.705 Q 401.52 367.763 407.683 368.526 L 407.683 368.526 L 407.683 369.868 L 407.683 369.868 Q 407.683 370.478 406.371 371.18 L 406.371 371.18 L 405.944 371.18 L 405.944 371.18 Q 401.977 371.18 399.781 367.671 L 399.781 367.671 L 399.781 367.671 Q 395.174 370.753 393.618 370.753 L 393.618 370.753 L 392.733 370.753 L 392.733 370.753 Q 391.848 370.753 391.848 369.868 L 391.848 369.868 L 391.848 368.983 L 391.848 368.983 Q 398.438 364.864 398.438 364.132 L 398.438 364.132 L 398.438 354.002 L 398.438 354.002 Q 390.902 354.002 388.766 342.561 L 388.766 342.561 L 388.766 342.561 Q 389.316 338.625 391.39 335.513 L 391.39 335.513 L 391.39 335.513 Q 390.872 335.513 384.8 328.923 L 384.8 328.923 L 384.8 328.923 Q 384.8 328.221 386.57 327.153 Z  M 391.848 342.988 L 391.848 342.988 L 391.848 342.988 Q 393.465 351.379 400.208 351.379 L 400.208 351.379 L 400.208 351.379 Q 408.568 349.914 408.568 343.446 L 408.568 343.446 L 408.568 341.676 L 408.568 341.676 Q 406.585 334.628 401.52 334.628 L 401.52 334.628 L 399.781 334.628 L 399.781 334.628 Q 393.282 334.628 391.848 342.988 Z  M 400.635 340.364 L 400.635 340.364 L 400.635 340.364 Q 402.862 340.974 402.862 343.446 L 402.862 343.446 L 402.862 343.446 Q 402.862 344.117 401.093 345.215 L 401.093 345.215 L 399.323 345.215 L 399.323 345.215 Q 398.011 344.758 398.011 342.561 L 398.011 342.561 L 398.011 342.134 L 398.011 342.134 Q 398.896 340.364 400.635 340.364 Z " fill="rgb(0,0,0)"/><path d=" M 16.779 113.406 L 16.779 113.406 L 17.229 113.406 L 17.229 113.406 Q 25.781 113.406 37.993 130.99 L 37.993 130.99 L 37.993 130.99 Q 38.894 134.83 38.894 135.52 L 38.894 135.52 L 38.894 135.52 Q 36.613 146.773 27.611 146.773 L 27.611 146.773 L 26.261 146.773 L 26.261 146.773 Q 32.532 153.554 35.713 153.554 L 35.713 153.554 L 35.713 153.554 Q 36.613 153.104 37.093 153.104 L 37.093 153.104 L 37.993 154.454 L 37.993 155.355 L 37.993 155.355 Q 37.993 156.135 35.713 156.705 L 35.713 156.705 L 35.713 156.705 Q 28.751 156.705 15.879 139.571 L 15.879 139.571 L 15.429 135.04 L 15.429 134.14 L 15.429 134.14 Q 15.429 125.318 27.611 123.338 L 27.611 123.338 L 27.611 123.338 Q 20.98 116.106 15.429 116.106 L 15.429 116.106 L 15.429 114.756 L 15.429 114.756 Q 15.429 114.096 16.779 113.406 Z  M 18.579 134.14 L 18.579 134.14 L 18.579 136.421 L 18.579 136.421 Q 18.579 141.642 26.711 144.072 L 26.711 144.072 L 26.711 144.072 Q 34.213 144.072 35.713 134.59 L 35.713 134.59 L 35.713 134.59 Q 35.713 128.619 27.161 126.489 L 27.161 126.489 L 27.161 126.489 Q 18.579 128.229 18.579 134.14 Z  M 26.261 132.79 L 26.261 132.79 L 26.711 132.79 L 26.711 132.79 Q 29.412 133.09 29.412 134.14 L 29.412 134.14 L 29.412 135.971 L 29.412 135.971 Q 29.412 136.661 27.611 137.771 L 27.611 137.771 L 27.611 137.771 Q 24.461 137.771 24.461 135.04 L 24.461 135.04 L 24.461 135.04 Q 25.331 133 26.261 132.79 Z " fill="rgb(0,0,0)"/><path d=" M 185.299 144.866 L 185.299 144.866 L 186.184 144.866 L 186.184 144.866 Q 187.069 145.003 187.069 145.751 L 187.069 145.751 L 187.069 169.58 L 187.069 169.58 Q 187.069 170.057 192.822 172.235 L 192.822 172.235 L 192.822 172.235 Q 197.689 177.035 197.689 181.528 L 197.689 181.528 L 197.689 181.528 Q 195.749 193 187.069 193 L 187.069 193 L 184.856 193 L 184.856 193 Q 176.925 193 174.712 182.413 L 174.712 182.413 L 174.712 181.971 L 174.712 181.971 Q 174.712 173.324 183.529 170.465 L 183.529 170.465 L 183.971 170.465 L 183.971 147.522 L 183.971 147.522 Q 184.277 144.866 185.299 144.866 Z  M 183.529 181.528 L 177.81 181.528 L 177.81 181.971 L 177.81 181.971 Q 179.239 189.902 184.856 189.902 L 184.856 189.902 L 187.511 189.902 L 187.511 189.902 Q 194.592 187.962 194.592 181.528 L 194.592 181.528 L 188.396 181.528 L 188.396 181.528 Q 188.396 184.183 185.741 184.183 L 185.741 184.183 L 185.299 184.183 L 185.299 184.183 Q 183.529 183.298 183.529 181.528 L 183.529 181.528 Z " fill="rgb(0,0,0)"/><path d=" M 88.511 211.728 L 88.511 211.728 L 88.951 211.728 L 88.951 211.728 Q 97.601 211.728 100.878 217.032 L 100.878 217.032 L 100.878 217.032 Q 102.196 220.006 102.196 221.864 L 102.196 221.864 L 102.196 222.743 L 102.196 222.743 Q 102.196 229.872 96.891 232.913 L 96.891 232.913 L 96.891 232.913 Q 92.499 233.69 92.499 236.427 L 92.499 236.427 L 92.499 237.745 L 92.499 237.745 Q 99.56 237.745 101.757 247.881 L 101.757 247.881 L 101.757 249.672 L 101.757 249.672 Q 101.757 258.119 90.268 260.248 L 90.268 260.248 L 90.268 260.248 Q 78.814 258.052 78.814 248.794 L 78.814 248.794 L 78.814 248.794 Q 81.01 237.306 89.39 237.306 L 89.39 237.306 L 89.39 236.427 L 89.39 236.427 Q 89.39 231.595 96.891 229.365 L 96.891 229.365 L 96.891 229.365 Q 99.121 226.324 99.121 223.621 L 99.121 223.621 L 99.121 222.303 L 99.121 222.303 Q 99.121 214.363 87.633 214.363 L 87.633 214.363 L 87.194 213.485 L 87.194 213.045 L 87.194 213.045 Q 87.194 212.403 88.511 211.728 Z  M 98.648 248.355 L 96.452 248.794 L 92.938 248.794 L 92.938 248.794 Q 92.938 250.078 91.181 250.99 L 91.181 250.99 L 89.39 250.99 L 89.39 250.99 Q 88.207 250.99 88.072 248.794 L 88.072 248.794 L 81.889 248.794 L 81.889 249.233 L 81.889 249.233 Q 81.889 255.957 91.181 257.173 L 91.181 257.173 L 91.181 257.173 Q 96.79 257.173 98.648 249.233 L 98.648 249.233 L 98.648 248.355 Z " fill="rgb(0,0,0)"/></g></svg>