<?xml version="1.0" encoding="UTF-8" standalone="no"?><!-- Generator: Gravit.io --><svg xmlns="http://www.w3.org/2000/svg" xmlns:xlink="http://www.w3.org/1999/xlink" style="isolation:isolate" viewBox="0 0 48.078 85.009" width="48.078pt" height="85.009pt"><defs><clipPath id="_clipPath_2VaYwQjeqiv1viphNIZOXphYBGprXwpN"><rect width="48.078" height="85.009"/></clipPath></defs><g clip-path="url(#_clipPath_2VaYwQjeqiv1viphNIZOXphYBGprXwpN)"><path d=" M 23.8 85 C 14.024 84.727 7.761 78.994 3.903 73 C 0.044 67.006 0 60.635 0 56.512 C 0 52.389 2.118 44.042 5.903 36.539 C 9.687 29.035 20.058 10.056 20.903 8 Q 21.748 5.944 24.028 0 Q 26.16 5.989 26.903 8 C 27.645 10.011 38.23 28.959 41.9 36.539 C 45.57 44.118 47.673 52.576 47.903 56.512 C 48.132 60.447 48.721 66.888 44.903 73 C 41.084 79.112 33.576 85.273 23.8 85 Z  M 22.469 65.169 C 22.469 60.202 26.502 56.169 31.469 56.169 C 36.437 56.169 40.469 60.202 40.469 65.169 C 40.469 70.137 36.437 74.169 31.469 74.169 C 26.502 74.169 22.469 70.137 22.469 65.169 Z " fill-rule="evenodd" fill="rgb(0,0,0)"/></g></svg>