<svg 
    xmlns="http://www.w3.org/2000/svg" 
    style="display: none;"
    >
    <symbol id="bug" viewBox="0 0 61.588 66.486">
        <path d=" M 48.639 63.617 C 53.539 60.417 57.839 55.317 60.239 49.717 C 62.439 44.217 61.839 18.017 59.239 14.117 C 56.339 9.617 53.239 10.517 46.439 17.717 C 43.239 21.217 38.939 24.917 37.039 26.017 L 32.539 27.917 L 32.539 46.117 C 32.539 63.117 32.639 64.417 34.439 65.417 C 37.939 67.217 43.939 66.517 48.639 63.617 Z " />
        <path d=" M 25.05 22.7 C 23.15 21.8 18.95 18.4 15.85 15.3 C 9.35 8.8 8.45 5.3 12.15 1.9 C 14.05 0.2 15.95 0 29.95 0 C 43.25 0 46.05 0.3 48.35 1.8 C 52.85 4.7 52.05 8.3 45.25 15.2 C 39.55 21 33.95 24.5 30.35 24.5 C 29.35 24.5 26.95 23.7 25.05 22.7 Z " />
        <path d=" M 12.95 63.7 C 8.05 60.5 3.75 55.4 1.35 49.8 C -0.85 44.3 -0.25 18.1 2.35 14.2 C 5.25 9.7 8.35 10.6 15.15 17.8 C 18.35 21.3 22.65 25 24.55 26.1 L 29.05 28 L 29.05 46.2 C 29.05 63.2 28.95 64.5 27.15 65.5 C 23.65 67.3 17.65 66.6 12.95 63.7 Z " />
    </symbol>

    <symbol id="dark" viewBox="0 0 76.362 78.652">
        <path d=" M 37.247 77.8 C 36.647 77.1 35.947 75.3 35.647 73.9 C 34.547 69.7 31.147 66.1 22.547 60.6 C 3.047 48 -3.753 33.1 1.947 14.9 C 3.747 9 9.147 0 10.847 0 C 11.247 0 11.647 2.5 11.747 5.7 C 12.147 15.5 17.247 24 25.047 28 C 31.547 31.4 37.147 32.3 43.347 31 C 55.447 28.5 63.447 19.1 64.647 6.1 C 65.247 0.1 65.1 -0.7 67 1 C 73.5 6.9 77.747 22 75.947 32.3 C 73.947 43.3 67.747 51.3 54.047 60.5 C 46.98 65.756 43.753 69.776 41 76 C 40.013 78.334 38.747 79.6 37.247 77.8 Z " />
    </symbol>
    
    <symbol id="dragon" viewBox="0 0 73.915 66.924">
        <path d=" M 15.975 66.3 C 11.375 65 5.475 60.9 2.375 57 C -1.825 51.4 -1.525 51.1 12.175 51.8 C 18.875 52.1 25.175 52.6 26.175 53 C 28.775 54.1 28.475 60.7 25.675 63.9 C 22.875 66.9 20.375 67.6 15.975 66.3 Z " />
        <circle cx="36.950285472438466" cy="44.44701492420744" r="7.975135911997269" />
        <path d=" M 10.375 37.1 C 3.075 33.9 -0.025 26.2 1.275 14.7 C 1.975 8.2 5.675 0 7.775 0 C 8.675 0 10.075 2.7 11.375 7.1 C 12.575 11 15.175 16.9 17.175 20.2 C 21.075 26.6 23.875 33.5 23.875 36.6 C 23.875 38.2 23.075 38.5 18.675 38.5 C 15.775 38.4 11.975 37.8 10.375 37.1 Z " />
        <path d=" M 57.94 66.3 C 62.54 65 68.44 60.9 71.54 57 C 75.74 51.4 75.44 51.1 61.74 51.8 C 55.04 52.1 48.74 52.6 47.74 53 C 45.14 54.1 45.44 60.7 48.24 63.9 C 51.04 66.9 53.54 67.6 57.94 66.3 Z " />
        <path d=" M 63.54 37.1 C 70.84 33.9 73.94 26.2 72.64 14.7 C 71.94 8.2 68.24 0 66.14 0 C 65.24 0 63.84 2.7 62.54 7.1 C 61.34 11 58.74 16.9 56.74 20.2 C 52.84 26.6 50.04 33.5 50.04 36.6 C 50.04 38.2 50.84 38.5 55.24 38.5 C 58.14 38.4 61.94 37.8 63.54 37.1 Z " />
    </symbol>

    <symbol id="electric" viewBox="0 0 74.8 78.559">
        <path d=" M 21.5 78.405 C 21.6 77.705 23.8 71.705 26.4 65.105 L 31.2 53.105 L 15.6 52.605 L 0 52.105 L 12 39.005 C 18.6 31.905 29.4 20.105 35.9 12.805 C 42.5 5.505 48 -0.195 48.3 0.005 C 48.5 0.305 48.2 2.705 47.7 5.305 C 47.1 7.905 46.1 13.505 45.5 17.605 C 44.9 21.705 44.2 26.105 43.9 27.405 L 43.5 29.605 L 59.2 29.605 L 74.8 29.605 L 72.4 32.205 C 71.1 33.705 62.4 41.905 53 50.605 C 43.7 59.205 32.7 69.305 28.8 73.105 C 24.8 76.805 21.5 79.205 21.5 78.405 Z " />
    </symbol>

    <symbol id="fairy" viewBox="0 0 84.682 75">
        <path d=" M 46.682 65.9 L 46.682 56.8 L 54.182 49.7 C 61.382 42.8 61.682 42.3 61.682 38 C 61.682 35.5 60.782 30.2 59.682 26.2 C 57.182 17.3 57.182 14.9 59.582 10.1 C 63.182 3.1 70.982 -3.5 68.782 2.3 C 67.482 5.7 69.882 10.5 74.382 13.3 C 82.282 18.4 84.682 22.7 84.682 31.8 C 84.682 42.4 80.582 46.7 67.382 50.1 C 62.082 51.4 59.482 52.7 57.482 54.9 C 54.882 57.8 50.682 69.1 50.682 73.1 C 50.682 74.3 49.982 75 48.682 75 C 46.782 75 46.682 74.3 46.682 65.9 Z " />
        <path d=" M 46.882 22.8 C 44.182 17.2 44.682 11.1 48.082 6.5 C 49.482 4.7 49.582 5.5 49.682 14.8 C 49.682 25 48.982 27 46.882 22.8 Z " />
        <path d=" M 38 65.822 L 38 56.722 L 30.5 49.622 C 23.3 42.722 23 42.222 23 37.922 C 23 35.422 23.9 30.122 25 26.122 C 27.5 17.222 27.5 14.822 25.1 10.022 C 21.5 3.022 13.7 -3.578 15.9 2.222 C 17.2 5.622 14.8 10.422 10.3 13.222 C 2.4 18.322 0 22.622 0 31.722 C 0 42.322 4.1 46.622 17.3 50.022 C 22.6 51.322 25.2 52.622 27.2 54.822 C 29.8 57.722 34 69.022 34 73.022 C 34 74.222 34.7 74.922 36 74.922 C 37.9 74.922 38 74.222 38 65.822 Z " />
        <path d=" M 37.8 22.722 C 40.5 17.122 40 11.022 36.6 6.422 C 35.2 4.622 35.1 5.422 35 14.722 C 35 24.922 35.7 26.922 37.8 22.722 Z " />
    </symbol>

    <symbol id="fighting" viewBox="0 0 55 60">
        <path d=" M 0 43 L 0 25.9 L 10.3 26.2 L 20.5 26.5 L 20.8 35.8 L 21.1 45 L 28.5 45 L 36 45 L 36 52.5 L 36 60 L 18 60 L 0 60 L 0 43 Z " />
        <path d=" M 39.8 50.8 L 39.5 41.5 L 33.3 41.2 L 27 40.9 L 27 33.5 L 27 26 L 41 26 L 55 26 L 55 43 L 55 60 L 47.5 60 L 40.1 60 L 39.8 50.8 Z " />
        <path d=" M 0 11.5 L 0 0 L 5 0 L 10 0 L 10 11.5 L 10 23 L 5 23 L 0 23 L 0 11.5 Z " />
        <path d=" M 15 11.5 L 15 0 L 20 0 L 25 0 L 25 11.5 L 25 23 L 20 23 L 15 23 L 15 11.5 Z " />
        <path d=" M 30 11.5 L 30 0 L 35 0 L 40 0 L 40 11.5 L 40 23 L 35 23 L 30 23 L 30 11.5 Z " />
        <path d=" M 45 11.5 L 45 0 L 50 0 L 55 0 L 55 11.5 L 55 23 L 50 23 L 45 23 L 45 11.5 Z " />
    </symbol>

    <symbol id="fire" viewBox="0 0 78.4 79.177">
        <path d=" M 22.6 77.6 C 10.9 74.2 1.4 62.3 0.4 49.8 L 0 44.3 C 3.49 46.813 6.233 47.023 8.2 44.9 L 8.2 35.4 C 8.2 26.4 9.3 21.1 12 18.1 C 14.2 15.5 15.8 15.9 16.8 19.5 C 17.3 21.2 18.2 22.8 18.9 23 C 20.4 23.5 32.2 9.4 32.2 7.1 C 32.2 6 31 4 29.6 2.6 L 27 0 L 35.4 0.5 C 41.7 0.9 44.9 1.6 48.8 3.6 C 58.8 8.7 65.9 19.9 69.1 35.7 C 70 40.4 71.1 44.6 71.5 44.9 C 71.9 45.3 73.6 44.3 75.3 42.7 L 78.4 39.8 L 78 46.8 C 77.8 50.8 76.8 55.4 75.8 57.6 C 73.4 62.4 66.108 69.502 62.2 72.7 C 59.62 74.532 59.064 74.764 59.6 71.7 C 61.61 63.732 61.1 52.9 55.6 48.5 C 52.6 46.1 52.2 45.3 52.2 41 C 52.2 35.3 50.9 35.2 47.5 40.3 L 45.2 43.6 L 45.2 40.7 C 45.2 39.1 44.2 35.8 43.1 33.3 C 41.2 29.2 41 28.9 39.7 30.6 C 39 31.6 38.1 34.7 37.7 37.5 L 37 42.6 L 34 39.4 C 32.4 37.7 30.7 36.3 30.1 36.3 C 29.6 36.3 29.2 38.9 29.2 42.1 C 29.2 46.6 28.7 48.6 26.6 51.6 C 21.8 58.7 22.1 66 27.7 74.3 C 31.5 79.9 31.2 80.2 22.6 77.6 Z " />
        <circle cx="42.374561414585" cy="65.57897204497236" r="13.174561414585" />
    </symbol>

    <symbol id="flying" viewBox="0 0 74 73">
        <path d=" M 32.6 70.5 C 32 68.2 31.5 68 26.2 68 C 18.387 68 14 66.4 14 64.4 C 14 63.6 14.318 62.203 17.3 61 C 21.595 59.855 23.245 59.972 18.5 58.5 C 8.8 56.2 7.3 55.5 3.8 52 C 1.7 49.9 0 47.4 0 46.5 C 0 44.9 0.7 44.8 6 45.3 C 9.3 45.6 13 46 13 45.8 C 13 45.5 11.1 43.7 10.1 42.2 C 4.4 34.4 1.1 12.5 4.3 4.7 C 8.6 -5.4 16.8 1.8 25.1 23 C 29.7 34.5 36 58.2 36 63.6 C 36 65.5 36.5 67 37 67 C 37.6 67 38 66 38 64.8 C 38 60.2 42.1 43.4 45.9 32 C 52.4 12.6 59.8 0 64.7 0 C 68.8 0 70.5 3.6 70.8 12.9 C 71.2 23.3 69.1 33.3 65 40.6 L 62.1 45.8 L 68 45.3 C 73.5 44.8 74 44.9 74 46.7 C 74 49.7 66.8 55.7 61.8 57 C 59.4 57.6 56.4 58.5 55 59 C 52.5 59.8 52.5 59.8 55.7 60.5 C 57.5 60.9 59.6 62 60.5 63 C 63 65.7 60.403 67.367 50.8 67.8 C 43.581 67.836 42.635 67.637 42 70.5 C 41.781 72.609 39.8 73 37 73 C 33.9 73 33.1 72.6 32.6 70.5 Z " />
    </symbol>

    <symbol id="ghost" viewBox="0 0 67.458 75.526">
        <path d=" M 20.958 75.1 C 20.958 74.8 23.458 73.9 26.458 73 C 29.458 72.2 31.958 70.9 31.958 70.2 C 31.958 69.5 27.658 66.8 22.458 64.2 C 11.658 58.8 10.058 56.6 13.858 51.5 C 14.958 49.9 15.958 48.1 15.958 47.6 C 15.958 47 13.558 44.8 10.758 42.6 C -2.642 32.4 -3.542 21.1 8.158 9.8 C 10.558 7.5 15.158 4.4 18.458 2.8 C 23.558 0.4 25.758 0 33.458 0 C 47.358 0 58.458 5.2 64.658 14.7 C 67.158 18.3 67.458 19.8 67.458 26.4 C 67.358 32.3 66.858 35 65.158 38.2 C 61.958 44.4 56.658 49 49.958 51.4 C 42.858 54 41.958 55.1 45.058 57.3 C 49.458 60.4 51.958 63.4 51.958 65.8 C 51.958 68.8 47.358 73.3 42.858 74.5 C 39.558 75.5 20.958 75.9 20.958 75.1 Z " />
    </symbol>

    <symbol id="grass" viewBox="0 0 68.263 89.2">
        <path d=" M 28.363 84.8 C 27.763 80.9 27.263 80.2 24.763 79.7 C 20.863 78.8 10.863 72.2 7.563 68.2 C -2.437 56.3 -2.537 43.7 7.363 28.7 Q 12.463 21.1 34.863 0 L 43.963 8.8 C 53.863 18.5 61.063 27.7 65.463 36.2 C 67.763 40.7 68.263 43 68.263 48.7 C 68.263 61.5 61.263 71.2 47.363 77.9 C 39.963 81.4 39.863 81.5 39.863 85.3 L 39.863 89.2 L 34.463 89.2 L 28.963 89.2 L 28.363 84.8 Z  M 36.763 68.2 C 38.863 67.2 47.263 56.3 46.563 55.6 C 46.363 55.3 45.063 55.5 43.763 56 C 42.363 56.6 40.363 56.6 38.963 56.1 C 35.263 54.7 36.663 49 42.263 43.3 C 46.863 38.5 49.563 34.2 48.063 34.2 C 47.563 34.2 45.163 34.9 42.863 35.7 C 40.563 36.5 38.263 36.9 37.763 36.6 C 37.263 36.3 36.863 33.9 36.863 31.1 C 36.863 26.6 36.663 26.2 34.463 26.2 C 32.363 26.2 32.063 26.7 31.663 31.2 C 31.363 34 30.863 36.5 30.463 36.9 C 30.163 37.3 27.563 36.6 24.863 35.5 C 18.063 32.6 18.263 34.5 25.363 42.2 C 30.363 47.6 30.863 48.6 30.863 52.7 C 30.863 56.6 30.563 57.2 28.763 57.2 C 27.663 57.2 25.863 56.7 24.663 56.1 C 21.263 54.3 21.563 55.9 25.763 61.6 C 31.163 68.8 33.263 70.1 36.763 68.2 Z " />
    </symbol>

    <symbol id="ground" viewBox="0 0 79.012 77.9">
        <path d=" M 7.8 64.4 C 3.5 57 0 50.5 0 49.9 C 0 48.5 13.6 31.8 15.6 30.6 C 17.617 31.227 29.081 38.604 39.5 45 C 40.2 45.5 61.7 30.9 62.8 30.9 C 65.543 32.396 79.469 48.382 79 49.8 C 79 51.2 63.8 77.9 63 77.9 C 62.7 77.9 57.3 71.6 51 63.9 C 44.8 56.2 39.6 49.9 39.5 49.9 C 39.4 49.9 34.2 56.2 28 63.9 C 21.7 71.6 16.3 77.9 16 77.9 C 15.7 77.9 12 71.8 7.8 64.4 Z " />
        <path d=" M 30.5 29.3 C 26.1 26.3 22.4 23.4 22.2 22.9 C 21.8 21.9 38.9 -0.1 39.9 0 C 40.8 0.1 57.1 21.2 57.2 22.4 C 57.3 23.5 41.3 34.9 39.6 34.9 C 39 34.9 34.9 32.4 30.5 29.3 Z " />
    </symbol>

    <symbol id="ice" viewBox="0 0 79.662 87">
        <path d=" M 35.84 83.3 C 35.84 79.5 35.74 79.4 23.94 72.3 C 17.44 68.3 11.54 65 10.84 65 C 10.24 65 8.24 66 6.64 67.2 L 3.54 69.3 L 1.74 66.9 C -0.66 63.7 -0.66 63.5 2.84 61 L 5.84 58.9 L 5.84 43.1 L 5.84 27.4 L 2.84 25.7 C -0.66 23.6 -0.76 23 1.64 20 L 3.44 17.7 L 7.44 20 L 11.34 22.2 L 23.54 14.8 C 35.64 7.6 35.74 7.5 35.84 3.8 C 35.84 0 35.94 0 39.84 0 C 43.84 0 43.84 0 43.84 3.8 C 43.84 7.5 43.94 7.5 56.14 14.8 C 62.94 18.7 68.84 22 69.24 22 C 69.64 22 71.34 21 72.94 19.8 L 76.04 17.5 L 77.94 19.9 C 80.44 23 80.34 23.6 76.84 25.7 L 73.84 27.4 L 73.84 43.1 L 73.84 58.9 L 76.84 61 C 80.34 63.5 80.34 63.7 77.94 66.9 L 76.14 69.3 L 73.04 67.2 C 71.44 66 69.54 65 68.94 65 C 68.24 65 62.34 68.3 55.84 72.3 C 43.94 79.4 43.84 79.5 43.84 83.3 C 43.84 87 43.84 87 39.84 87 C 35.84 87 35.84 87 35.84 83.3 Z  M 38.84 68.5 C 38.84 65.2 38.34 64.7 30.34 59.4 C 22.34 54 21.74 53.8 18.84 55 C 17.24 55.7 15.84 56.6 15.84 57.1 C 15.84 58.2 35.94 71.9 37.64 71.9 C 38.34 72 38.84 70.7 38.84 68.5 Z  M 54.04 64.6 L 65.14 57.1 L 61.54 55.4 L 57.94 53.7 L 49.34 59.3 C 41.34 64.7 40.84 65.2 40.84 68.5 C 40.84 70.4 41.34 72 41.84 72 C 42.44 72 47.94 68.7 54.04 64.6 Z  M 38.84 54 C 38.84 50.2 38.74 47 38.54 47 C 36.84 47 26.34 52.1 26.34 52.9 C 26.34 54.1 35.74 60.9 37.64 60.9 C 38.44 61 38.84 59 38.84 54 Z  M 48.34 57.3 C 51.44 55.3 53.74 53.3 53.54 52.7 C 53.34 52 42.54 47 41.14 47 C 40.94 47 40.84 50.2 40.84 54 C 40.84 58.1 41.24 61 41.84 61 C 42.44 61 45.34 59.4 48.34 57.3 Z  M 18.14 52.6 C 19.54 51.5 19.84 49.7 19.84 43.2 C 19.84 36.2 19.54 34.9 17.94 34 C 16.84 33.5 15.74 33 15.44 33 C 15.14 33 14.84 37.7 14.84 43.5 C 14.84 49.3 15.14 54 15.64 54 C 16.04 54 17.14 53.3 18.14 52.6 Z  M 64.84 43.5 C 64.84 37.7 64.54 33 64.24 33 C 63.94 33 62.84 33.5 61.74 34 C 60.14 34.9 59.84 36.2 59.84 43.2 C 59.84 49.7 60.14 51.5 61.64 52.6 C 62.54 53.3 63.64 54 64.14 54 C 64.54 54 64.84 49.3 64.84 43.5 Z  M 29.04 46.4 C 31.84 45 33.74 43.5 33.24 43.1 C 31.04 41 23.14 37.1 22.54 37.7 C 21.44 38.8 21.74 49 22.84 49 C 23.44 49 26.24 47.8 29.04 46.4 Z  M 57.84 43.6 C 57.84 40.6 57.44 37.9 57.04 37.6 C 56.24 37.2 45.44 42.9 46.04 43.5 C 47.14 44.6 55.54 49 56.64 49 C 57.44 49 57.84 47.3 57.84 43.6 Z  M 52.64 35.3 C 53.24 35 53.84 34.4 53.84 33.9 C 53.84 33.1 42.54 25 41.44 25 C 41.04 25 40.84 28.4 40.84 32.5 L 40.84 40 L 46.14 37.9 C 48.94 36.7 51.94 35.6 52.64 35.3 Z  M 38.84 32 C 38.84 28.2 38.64 25 38.24 25 C 37.24 25 25.84 33.1 25.84 33.9 C 25.84 34.8 34.64 38.8 37.14 38.9 C 38.64 39 38.84 38 38.84 32 Z  M 30.34 27.3 C 38.54 21.9 38.84 21.6 38.84 17.8 C 38.84 13.2 39.64 12.9 24.94 22.9 L 14.54 30 L 17.94 31.4 C 19.84 32.3 21.44 32.9 21.64 33 C 21.74 33 25.64 30.5 30.34 27.3 Z  M 61.54 31.5 C 63.54 30.7 64.94 29.8 64.74 29.6 C 62.64 27.5 41.84 14.3 41.44 14.8 C 41.14 15.1 40.84 16.8 40.84 18.5 C 40.84 21.4 41.64 22.3 49.14 27.3 C 53.64 30.4 57.44 32.9 57.64 32.9 C 57.74 33 59.54 32.3 61.54 31.5 Z " />
    </symbol>

    <symbol id="normal" viewBox="0 0 67 67">
        <path d=" M 26.95 46.41 L 26.95 55.448 C 17.499 52.628 10.6 43.863 10.6 33.5 L 10.6 33.5 C 10.6 20.861 20.861 10.6 33.5 10.6 C 46.139 10.6 56.4 20.861 56.4 33.5 C 56.4 43.863 49.501 52.628 40.05 55.448 L 40.05 55.448 L 40.05 46.41 C 44.751 44.017 47.975 39.132 47.975 33.5 C 47.975 25.511 41.489 19.025 33.5 19.025 C 25.511 19.025 19.025 25.511 19.025 33.5 C 19.025 39.132 22.249 44.017 26.95 46.41 Z  M 0 33.5 C 0 15.011 15.011 0 33.5 0 C 51.989 0 67 15.011 67 33.5 C 67 51.989 51.989 67 33.5 67 C 15.011 67 0 51.989 0 33.5 L 0 33.5 L 0 33.5 Z " fill-rule="evenodd" />
    </symbol>

    <symbol id="poison" viewBox="0 0 53.966 78.411">
        <path d=" M 23.966 19.911 C 23.966 15.772 27.327 12.411 31.466 12.411 C 35.606 12.411 38.966 15.772 38.966 19.911 C 38.966 24.05 35.606 27.411 31.466 27.411 C 27.327 27.411 23.966 24.05 23.966 19.911 L 23.966 19.911 L 23.966 19.911 Z  M 0 66.394 C 0 62.54 3.129 59.411 6.983 59.411 C 10.837 59.411 13.966 62.54 13.966 66.394 C 13.966 70.248 10.837 73.377 6.983 73.377 C 3.129 73.377 0 70.248 0 66.394 L 0 66.394 Z  M 3.296 23.706 C 3.296 10.622 13.918 0 27.001 0 C 40.085 0 50.707 10.622 50.707 23.706 C 50.707 36.789 40.085 47.411 27.001 47.411 C 13.918 47.411 3.296 36.789 3.296 23.706 L 3.296 23.706 L 3.296 23.706 Z  M 27.001 64.929 C 27.001 57.487 33.043 51.446 40.484 51.446 C 47.925 51.446 53.966 57.487 53.966 64.929 C 53.966 72.37 47.925 78.411 40.484 78.411 C 33.043 78.411 27.001 72.37 27.001 64.929 Z " fill-rule="evenodd" />
    </symbol>

    <symbol id="psychic" viewBox="0 0 88.4 66.086">
        <path d=" M 21.489 18.013 C 13.622 21.585 8.542 26.984 8.308 33.043 C 8.303 33.188 8.3 33.334 8.3 33.48 L 8.3 33.48 C 8.3 39.715 13.433 45.288 21.489 48.945 C 18.461 44.547 16.7 39.218 16.7 33.48 C 16.7 33.334 16.701 33.188 16.703 33.043 C 16.79 27.471 18.538 22.299 21.489 18.013 L 21.489 18.013 Z  M 66.911 18.013 C 74.778 21.585 79.858 26.984 80.092 33.043 C 80.097 33.188 80.1 33.334 80.1 33.48 C 80.1 39.715 74.967 45.288 66.911 48.945 C 69.939 44.547 71.7 39.218 71.7 33.48 C 71.7 33.334 71.699 33.188 71.697 33.043 C 71.61 27.471 69.862 22.299 66.911 18.013 L 66.911 18.013 Z  M 0 33.043 C 30.513 -11.029 60.009 -10.999 88.4 33.043 L 80.092 33.043 L 71.697 33.043 L 53.981 33.043 L 35.219 33.043 L 16.703 33.043 L 8.308 33.043 L 0 33.043 C 30.513 77.115 60.009 77.085 88.4 33.043 L 0 33.043 L 0 33.043 L 0 33.043 Z  M 35.2 33.643 C 35.2 33.441 35.206 33.241 35.219 33.043 C 35.529 28.134 39.614 24.243 44.6 24.243 C 49.586 24.243 53.671 28.134 53.981 33.043 C 53.994 33.241 54 33.441 54 33.643 C 54 38.831 49.788 43.043 44.6 43.043 C 39.412 43.043 35.2 38.831 35.2 33.643 Z " fill-rule="evenodd" />
    </symbol>

    <symbol id="rock" viewBox="0 0 83 66">
        <path d=" M 0 42 L 17 66 L 25 58 L 13 42 L 0 42 L 0 42 L 0 42 Z  M 57 0 L 51 12 L 31 12 L 25 0 L 57 0 L 57 0 L 57 0 Z  M 29.566 58 L 53.434 58 L 69 37.024 L 52.396 15 L 29.566 15 L 14 37.024 L 14 37.024 L 29.566 58 L 29.566 58 Z  M 83 42 L 66 66 L 58 58 L 70 42 L 83 42 Z " fill-rule="evenodd" />
    </symbol>

    <symbol id="steel" viewBox="0 0 84.25 77.15">
        <path d=" M 49.225 77.15 L 84.25 42.125 L 42.125 0 L 42.125 0 L 0 42.125 L 35.025 77.15 L 35.025 55.841 L 21.309 42.125 L 42.125 21.309 L 42.125 21.309 L 62.941 42.125 L 49.225 55.841 L 49.225 77.15 Z " fill-rule="evenodd" />
    </symbol>

    <symbol id="water" viewBox="0 0 48.078 85.009">
        <path d=" M 23.8 85 C 14.024 84.727 7.761 78.994 3.903 73 C 0.044 67.006 0 60.635 0 56.512 C 0 52.389 2.118 44.042 5.903 36.539 C 9.687 29.035 20.058 10.056 20.903 8 Q 21.748 5.944 24.028 0 Q 26.16 5.989 26.903 8 C 27.645 10.011 38.23 28.959 41.9 36.539 C 45.57 44.118 47.673 52.576 47.903 56.512 C 48.132 60.447 48.721 66.888 44.903 73 C 41.084 79.112 33.576 85.273 23.8 85 Z  M 22.469 65.169 C 22.469 60.202 26.502 56.169 31.469 56.169 C 36.437 56.169 40.469 60.202 40.469 65.169 C 40.469 70.137 36.437 74.169 31.469 74.169 C 26.502 74.169 22.469 70.137 22.469 65.169 Z " fill-rule="evenodd" />
    </symbol>

</svg>
